<svg width="300.000000pt" height="300.000000pt" viewBox="0 0 300.000000 300.000000" xmlns="http://www.w3.org/2000/svg">
  <g transform="translate(0.000000,300.000000) scale(0.100000,-0.100000)" fill="#fefefe" stroke="none">
    <path d="M0 1500 l0 -1500 575 0 c316 0 575 3 575 8 0 4 -47 22 -103 40 -122
39 -248 101 -366 179 l-86 57 -121 121 -120 120 -63 94 c-35 52 -81 130 -102
174 -48 94 -101 250 -126 367 l-18 85 0 200 0 200 18 84 c22 101 56 203 109
326 174 403 534 719 950 834 41 11 117 27 171 35 l97 16 117 0 118 0 110 -19
c61 -11 148 -31 195 -46 115 -36 267 -110 381 -186 l94 -63 116 -115 115 -116
67 -100 c97 -148 186 -347 226 -510 11 -44 25 -127 32 -185 l12 -105 -6 -110
c-12 -213 -56 -391 -141 -570 -151 -318 -389 -554 -711 -706 -57 -27 -139 -59
-184 -71 -44 -13 -81 -26 -81 -30 0 -5 259 -8 575 -8 l575 0 0 1500 0 1500
-1500 0 -1500 0 0 -1500z" />
    <path d="M1270 2670 c-93 -20 -157 -40 -237 -76 l-53 -23 0 -18 c0 -10 27 -65
60 -122 l60 -103 -17 -14 c-10 -7 -22 -12 -27 -11 -5 2 -37 51 -70 110 l-61
107 -16 0 c-25 0 -137 -90 -219 -176 -88 -93 -133 -156 -128 -180 l3 -17 106
-60 107 -61 -11 -23 c-6 -13 -14 -23 -19 -23 -5 0 -56 27 -113 61 -57 33 -109
59 -115 57 -18 -6 -67 -126 -95 -229 -13 -51 -28 -132 -31 -181 l-7 -88 137 0
136 0 0 -40 0 -40 334 0 334 0 6 25 c10 39 63 92 110 110 l43 17 42 -4 43 -3
79 135 c43 74 79 144 79 155 l0 20 -35 19 c-19 11 -35 24 -35 31 0 17 22 34
139 104 l103 63 10 -13 9 -14 -3 -130 c-2 -71 -7 -135 -11 -142 l-8 -12 -44
21 -45 22 -9 -10 c-5 -5 -46 -73 -91 -151 l-82 -143 24 -50 23 -49 333 -1 332
0 0 40 0 40 141 0 142 0 -6 88 c-8 105 -44 252 -86 345 l-30 67 -15 0 c-8 0
-65 -29 -125 -64 l-111 -65 -10 19 c-6 10 -10 23 -10 27 0 5 50 37 110 72
l110 63 0 17 c0 24 -80 131 -150 201 -74 74 -176 150 -201 150 l-18 0 -55 -97
c-31 -54 -60 -105 -65 -113 l-10 -14 -24 13 -24 13 63 111 c35 61 64 117 64
124 l0 14 -67 30 c-95 42 -242 79 -345 86 l-88 6 0 -137 0 -136 -30 0 -30 0 0
135 0 135 -57 -1 c-32 0 -96 -9 -143 -19z" />
    <path d="M690 845 l0 -345 178 0 178 0 47 16 46 16 30 34 c47 53 62 129 41
206 l-10 36 -36 32 -36 31 22 24 c12 13 26 43 31 67 l8 43 -10 45 -10 45 -32
33 -31 33 -50 14 -50 15 -158 0 -158 0 0 -345z m335 211 c13 -9 28 -28 31 -42
l7 -25 -12 -25 c-6 -13 -22 -29 -37 -34 -14 -6 -66 -10 -115 -10 l-89 0 0 73
c0 41 3 77 8 81 4 5 46 6 94 3 l88 -4 25 -17z m15 -274 l35 -17 8 -30 8 -30
-10 -27 c-5 -15 -22 -35 -37 -45 l-28 -18 -103 -3 -103 -4 0 96 0 96 98 0 97
0 35 -18z" />
    <path d="M1307 1184 c-4 -4 -7 -160 -7 -346 l0 -338 60 0 60 0 2 220 3 221 74
-221 73 -220 58 0 58 0 75 223 75 222 1 -222 1 -223 60 0 60 0 0 345 0 345
-85 0 -84 0 -78 -240 c-43 -132 -81 -240 -85 -240 -3 0 -9 12 -12 28 -4 15
-37 121 -75 237 l-69 210 -79 3 c-43 1 -82 0 -86 -4z" />
    <path d="M2090 845 l0 -345 60 0 60 0 0 345 0 345 -60 0 -60 0 0 -345z" />
  </g>
  <g transform="translate(0.000000,300.000000) scale(0.100000,-0.100000)" fill="#1597f2" stroke="none">
    <path d="M1275 2934 c-161 -27 -313 -78 -454 -152 -228 -121 -443 -328 -579
-557 -49 -83 -112 -226 -141 -319 -24 -79 -37 -152 -50 -295 l-10 -104 10
-121 c12 -143 36 -259 80 -382 41 -117 93 -219 170 -335 l63 -94 106 -105 c58
-58 133 -125 168 -150 159 -114 340 -197 522 -239 47 -11 135 -25 195 -32
l110 -12 111 7 c61 3 151 13 200 21 191 34 416 130 586 252 108 77 248 218
327 328 118 167 211 385 247 580 9 50 19 155 21 235 l5 145 -16 105 c-10 58
-24 132 -32 165 -31 120 -115 299 -201 430 l-67 100 -115 116 -116 115 -94 63
c-114 76 -266 150 -381 186 -47 15 -134 35 -195 46 l-110 19 -140 -1 c-77 -1
-176 -7 -220 -15z m193 -381 l3 -133 34 0 34 0 3 133 3 132 45 -2 c58 -2 104
-8 116 -15 5 -3 31 -9 59 -13 27 -3 54 -10 60 -14 5 -5 26 -12 45 -16 30 -7
78 -27 130 -55 8 -4 13 -16 12 -26 -2 -10 -29 -61 -60 -113 -32 -53 -59 -99
-61 -104 -5 -12 31 -36 54 -36 l20 0 60 105 c33 59 65 108 72 111 15 6 120
-74 193 -147 67 -68 152 -178 148 -192 -4 -10 -32 -28 -160 -101 -32 -17 -60
-38 -62 -44 -3 -7 5 -24 17 -38 l22 -26 110 66 c60 36 114 64 119 62 5 -2 13
-10 17 -18 31 -59 48 -100 54 -129 4 -19 11 -39 15 -45 5 -5 11 -26 14 -45 4
-19 9 -46 12 -60 3 -14 6 -36 8 -50 1 -14 6 -32 10 -42 4 -9 6 -31 4 -50 l-3
-33 -137 -3 -137 -3 -3 -37 -3 -37 -327 -3 -328 -2 0 -53 0 -52 -23 -40 c-39
-69 -115 -105 -192 -91 l-35 7 -37 32 c-45 39 -72 98 -73 154 l0 43 -327 2
-328 3 -3 37 -3 37 -132 3 -132 3 2 35 c6 99 20 189 33 205 4 6 11 27 14 47 3
20 22 71 42 112 l36 76 51 -28 c83 -46 101 -56 117 -69 8 -6 27 -14 41 -18
l27 -7 15 23 16 22 -9 17 c-5 10 -24 25 -42 34 -18 9 -55 30 -83 47 -27 16
-58 32 -67 36 -10 3 -18 11 -18 18 0 20 94 136 172 211 71 69 164 142 171 133
8 -9 95 -156 111 -186 l17 -33 17 0 c9 0 25 7 36 15 l19 14 -7 17 c-3 9 -31
59 -61 110 -30 51 -55 98 -55 103 0 13 107 67 151 76 19 4 40 12 47 17 6 6 12
7 12 4 0 -4 8 -2 19 3 17 10 56 17 124 25 15 1 30 6 34 10 4 4 25 6 48 4 l40
-3 3 -132z m-453 -1375 c68 -17 128 -61 147 -108 9 -21 13 -78 9 -120 -1 -5
-15 -25 -32 -45 l-32 -36 41 -34 40 -35 17 -55 18 -55 -12 -14 c-6 -8 -11 -18
-10 -22 4 -17 -20 -60 -47 -85 -16 -15 -45 -35 -64 -44 l-35 -18 -174 2 c-96
1 -178 4 -183 7 -4 3 -8 150 -8 328 l0 322 12 12 13 13 140 -4 c77 -3 149 -7
160 -9z m445 9 c0 -1 9 -27 20 -57 11 -30 20 -62 20 -70 0 -8 7 -28 15 -44 8
-15 15 -34 15 -42 0 -7 6 -28 14 -46 12 -29 27 -75 64 -202 4 -17 13 -31 18
-33 10 -3 44 68 44 95 0 9 6 29 14 44 8 15 17 41 21 59 4 19 11 40 15 49 5 8
20 56 35 105 14 50 32 101 38 115 l13 25 74 0 75 0 0 -335 0 -335 -55 0 -55 0
-3 208 -2 209 -12 -4 c-7 -3 -16 -20 -20 -39 -3 -19 -14 -48 -22 -64 -9 -17
-16 -39 -16 -50 0 -11 -7 -33 -15 -49 -8 -15 -17 -40 -20 -55 -2 -14 -11 -42
-18 -61 -8 -19 -19 -48 -23 -65 l-9 -30 -54 0 -53 0 -70 213 c-39 116 -74 212
-79 212 l-9 0 -2 -212 -3 -213 -55 0 -55 0 -3 322 -2 321 16 16 15 16 65 0
c35 0 64 -1 64 -3z m739 -11 l11 -13 -2 -324 -3 -324 -55 0 -55 0 -3 324 -2
324 11 13 11 14 38 0 38 0 11 -14z" />
    <path d="M810 1017 c0 -42 -3 -83 -7 -93 l-6 -17 118 6 118 5 13 14 c7 7 14
35 15 62 l3 48 -24 18 c-14 10 -31 19 -40 20 -8 1 -54 4 -102 6 l-88 5 0 -74z" />
    <path d="M908 803 l-98 -4 0 -94 0 -95 114 0 113 0 27 25 27 25 -3 56 -3 57
-15 7 c-8 4 -25 12 -37 18 -13 7 -24 11 -25 10 -2 -1 -47 -4 -100 -5z" />
  </g>
  <g transform="translate(0.000000,300.000000) scale(0.100000,-0.100000)" fill="#fe0000" stroke="none">
    <path d="M1786 2137 c-66 -40 -121 -78 -123 -84 -3 -7 14 -22 36 -35 23 -13
41 -26 41 -29 0 -3 -40 -74 -88 -159 l-89 -154 -45 3 -45 2 -39 -16 c-45 -19
-80 -49 -100 -87 -8 -15 -14 -51 -14 -80 l0 -53 23 -40 c12 -22 38 -50 56 -62
l34 -23 66 0 66 0 31 19 c18 11 43 35 58 54 l26 34 0 63 0 63 -26 44 -26 44
88 152 c47 84 88 154 90 156 2 2 24 -7 48 -20 25 -13 47 -21 49 -19 8 9 18
300 10 300 -4 0 -62 -33 -127 -73z" />
  </g>
  <g transform="translate(0.000000,300.000000) scale(0.100000,-0.100000)" fill="#0091f1" stroke="none">
    <path d="M1366 2691 c-4 -6 -13 -8 -21 -4 -8 3 -23 2 -32 -2 -10 -4 -33 -9
-52 -11 -18 -2 -36 -6 -39 -9 -14 -13 11 -14 82 0 43 8 95 15 117 15 l39 0 0
-135 0 -135 40 0 40 0 0 136 0 137 86 -7 85 -6 -6 10 c-4 6 -17 10 -28 9 -12
-1 -29 1 -38 5 -9 4 -36 6 -60 4 l-44 -3 -3 -132 -3 -133 -24 0 -24 0 -3 133
-3 132 -52 3 -51 3 -6 -10z" />
    <path d="M1725 2670 l-6 -10 15 0 c9 0 16 5 16 10 0 6 -4 10 -9 10 -6 0 -13
-4 -16 -10z" />
    <path d="M1760 2662 c0 -5 12 -12 28 -16 15 -3 37 -8 50 -12 l22 -6 0 12 0 12
-14 -5 c-8 -3 -16 -2 -18 2 -2 5 -18 12 -35 16 l-33 7 0 -10z" />
    <path d="M1180 2650 c0 -5 -7 -7 -15 -4 l-15 6 0 -12 0 -12 23 6 c12 3 25 6
30 6 14 0 7 20 -8 20 -8 0 -15 -4 -15 -10z" />
    <path d="M1098 2628 c-16 -5 -28 -14 -28 -19 0 -6 -4 -8 -8 -5 -9 5 -39 -11
-32 -17 8 -7 110 35 110 44 0 11 -7 10 -42 -3z" />
    <path d="M1870 2630 c0 -5 4 -10 9 -10 5 0 39 -13 75 -30 l67 -29 -21 -41
c-11 -22 -16 -40 -10 -40 12 0 41 55 33 64 -4 3 -1 6 6 6 l12 0 -18 19 c-18
18 -60 37 -75 33 -5 -1 -8 2 -8 7 0 5 -14 14 -31 20 -39 13 -39 13 -39 1z" />
    <path d="M991 2569 l-21 -22 30 -51 c16 -28 34 -52 40 -54 6 -2 -3 22 -21 53
l-32 58 18 13 c10 8 16 16 13 20 -3 3 -15 -5 -27 -17z" />
    <path d="M897 2523 c-13 -13 -7 -21 13 -16 11 3 17 9 14 14 -6 11 -18 12 -27
2z" />
    <path d="M2080 2513 l-14 -17 18 7 19 7 23 -15 c30 -20 32 -1 2 19 -12 9 -25
16 -28 16 -3 -1 -12 -8 -20 -17z" />
    <path d="M864 2496 c-3 -9 -10 -14 -14 -11 -5 3 -33 -19 -64 -49 -30 -29 -57
-52 -59 -50 -2 2 -14 -7 -27 -21 -13 -14 -20 -25 -16 -25 4 0 -9 -14 -29 -31
-20 -18 -33 -34 -31 -37 3 -2 -5 -13 -17 -23 -12 -10 -19 -18 -15 -19 4 0 -4
-11 -16 -25 l-24 -26 5 -19 c5 -18 15 -24 36 -21 4 0 7 -4 7 -11 0 -6 3 -8 7
-4 4 4 -3 16 -17 26 l-24 18 29 44 c34 49 202 221 255 260 19 14 32 29 28 33
-4 4 -10 0 -14 -9z m-134 -119 c0 -2 -10 -12 -22 -23 l-23 -19 19 23 c18 21
26 27 26 19z" />
    <path d="M949 2449 c17 -30 36 -56 42 -58 6 -2 1 15 -11 38 -13 22 -27 41 -32
41 -4 0 -7 5 -5 11 1 6 -4 14 -11 16 l-14 5 31 -53z" />
    <path d="M2050 2470 l-11 -20 10 0 c6 0 15 9 21 20 l11 20 -10 0 c-6 0 -15 -9
-21 -20z" />
    <path d="M2160 2482 c0 -5 7 -15 15 -22 l15 -12 0 10 c0 5 -7 15 -15 22 l-15
12 0 -10z" />
    <path d="M1960 2450 l-11 -20 10 0 c6 0 15 9 21 20 l11 20 -10 0 c-6 0 -15 -9
-21 -20z" />
    <path d="M2200 2454 c0 -5 14 -23 30 -39 17 -16 30 -26 30 -23 0 4 15 -8 33
-25 18 -18 32 -35 30 -38 -4 -9 56 -63 62 -57 4 3 -5 15 -19 26 -14 10 -23 21
-21 24 3 2 -18 26 -45 53 -28 27 -50 46 -50 42 0 -5 -11 5 -25 20 -13 15 -25
23 -25 17z" />
    <path d="M2033 2433 c4 -3 10 -3 14 0 3 4 0 7 -7 7 -7 0 -10 -3 -7 -7z" />
    <path d="M1055 2400 c9 -16 20 -30 26 -30 l10 0 -16 30 c-9 17 -20 30 -26 30
l-10 0 16 -30z" />
    <path d="M1925 2390 l-16 -30 10 0 c6 0 17 14 26 30 l16 30 -10 0 c-6 0 -17
-13 -26 -30z" />
    <path d="M2010 2400 l-11 -20 10 0 c6 0 15 9 21 20 l11 20 -10 0 c-6 0 -15 -9
-21 -20z" />
    <path d="M1005 2350 c9 -16 20 -30 26 -30 l10 0 -16 30 c-9 17 -20 30 -26 30
l-10 0 16 -30z" />
    <path d="M1975 2340 l-16 -30 10 0 c6 0 17 14 26 30 l16 30 -10 0 c-6 0 -17
-13 -26 -30z" />
    <path d="M1092 2335 c6 -13 15 -22 19 -19 l9 5 -10 20 c-6 10 -15 19 -20 19
l-10 0 12 -25z" />
    <path d="M1897 2343 c-11 -10 -8 -35 3 -28 6 3 10 2 10 -4 0 -6 9 -15 21 -22
l21 -11 11 11 11 11 -17 0 c-9 0 -20 0 -23 -1 -3 0 -12 8 -19 18 l-13 18 11 7
12 8 -11 0 c-6 0 -14 -3 -17 -7z" />
    <path d="M1080 2312 l0 -11 -25 5 -24 4 5 -15 c8 -19 15 -19 40 -1 10 8 16 18
11 22 -4 4 -7 2 -7 -4z" />
    <path d="M2409 2218 c17 -23 31 -45 31 -50 0 -4 -18 -17 -40 -28 -22 -11 -40
-26 -40 -33 l0 -12 9 13 c4 8 11 13 15 13 16 -2 23 1 50 24 l29 25 -17 25 c-9
14 -22 25 -28 25 -6 0 -8 3 -5 7 8 7 -11 33 -25 33 -5 0 4 -19 21 -42z" />
    <path d="M620 2121 c0 -12 40 -35 40 -24 0 4 5 1 10 -7 l10 -15 0 12 c0 7 -13
19 -30 28 l-30 16 0 -10z" />
    <path d="M510 2089 c-8 -11 -14 -25 -12 -30 1 -5 -3 -9 -10 -9 -6 0 -9 -3 -5
-6 3 -4 0 -13 -8 -21 -17 -16 -20 -33 -6 -33 5 0 18 23 30 50 12 28 25 49 29
47 4 -2 56 -33 116 -67 l109 -63 13 18 c16 21 10 35 -8 17 l-11 -11 -19 10
c-10 5 -18 7 -18 4 0 -3 -9 4 -20 15 -12 12 -25 18 -30 15 -6 -4 -10 -2 -10 2
0 5 -13 17 -30 26 -16 10 -30 16 -30 13 0 -3 -8 1 -17 9 -10 8 -22 15 -27 14
-5 0 -12 4 -15 10 l-7 11 -14 -21z" />
    <path d="M2293 2078 c-29 -16 -53 -34 -53 -40 0 -5 21 2 48 17 52 31 68 43 61
49 -2 2 -28 -10 -56 -26z" />
    <path d="M2481 2104 c20 -42 33 -64 40 -64 13 0 -2 33 -24 54 -11 11 -18 15
-16 10z" />
    <path d="M2438 2084 c-16 -8 -28 -19 -28 -25 l0 -10 30 16 c17 9 30 20 30 25
0 12 1 12 -32 -6z" />
    <path d="M690 2081 c0 -12 40 -35 40 -24 0 4 5 1 10 -7 l10 -15 0 12 c0 7 -13
19 -30 28 l-30 16 0 -10z" />
    <path d="M2342 2029 c-28 -17 -52 -35 -52 -40 0 -6 21 2 48 17 54 31 68 42 61
48 -2 3 -28 -9 -57 -25z" />
    <path d="M760 2043 c0 -4 5 -15 10 -23 l9 -15 12 12 11 11 -21 11 c-12 7 -21
8 -21 4z" />
    <path d="M2216 2031 c-4 -7 -5 -15 -2 -18 9 -9 19 4 14 18 l-4 13 -8 -13z" />
    <path d="M2522 2023 c2 -5 10 -25 18 -45 8 -21 18 -38 22 -38 10 0 10 1 -3 39
-6 17 -15 31 -21 31 -5 0 -6 5 -3 10 3 6 1 10 -5 10 -7 0 -10 -3 -8 -7z" />
    <path d="M2230 1979 l11 -20 16 3 c9 2 18 10 20 18 l5 15 -10 -13 -9 -13 -13
16 c-7 8 -17 15 -22 15 l-9 0 11 -21z" />
    <path d="M441 1949 c-13 -39 -14 -49 -2 -49 5 0 12 11 15 24 3 13 9 31 12 40
l6 16 -10 0 c-6 0 -15 -14 -21 -31z" />
    <path d="M2564 1908 c4 -13 9 -35 12 -50 4 -16 11 -28 16 -28 l10 0 -7 33 c-4
17 -11 33 -16 35 -4 2 -5 10 -2 18 l5 14 -12 0 -12 0 6 -22z" />
    <path d="M423 1876 c3 -8 2 -16 -3 -18 -5 -2 -12 -23 -16 -48 l-7 -45 10 10
c9 8 33 90 33 109 0 3 -5 6 -11 6 -6 0 -9 -6 -6 -14z" />
    <path d="M2594 1793 c3 -16 9 -63 12 -105 l7 -78 -142 0 -141 0 0 -40 0 -40
10 0 c6 0 10 16 10 35 l0 34 138 3 137 3 3 44 c2 24 0 51 -4 60 -4 9 -6 26 -5
38 1 11 -2 24 -7 27 -6 3 -8 15 -5 26 l5 20 -12 0 -12 0 6 -27z" />
    <path d="M390 1741 c0 -11 5 -23 10 -26 l10 -6 0 25 c0 14 -4 26 -10 26 -5 0
-10 -9 -10 -19z" />
    <path d="M387 1688 c-5 -9 -7 -31 -5 -50 l3 -33 133 -3 132 -3 0 -34 c0 -19 5
-35 10 -35 l10 0 0 40 0 40 -134 0 -135 0 -3 48 -4 47 -7 -17z" />
    <path d="M1315 1527 c-4 -10 -5 -21 -1 -24 10 -10 18 4 13 24 l-4 18 -8 -18z" />
    <path d="M1670 1526 c0 -9 5 -16 10 -16 6 0 10 4 10 9 0 6 -4 13 -10 16 l-10
6 0 -15z" />
    <path d="M692 1188 l-12 -12 0 -333 0 -333 10 0 10 0 0 335 0 335 148 0 149 0
46 -14 47 -14 0 9 c0 8 -15 13 -32 10 -5 0 -8 4 -8 10 l0 11 -20 -5 c-11 -3
-23 -1 -26 4 l-5 9 -148 0 -147 0 -12 -12z" />
    <path d="M1306 1185 l-16 -16 0 -328 0 -329 14 -11 14 -12 7 11 c3 5 1 10 -5
10 l-10 0 2 333 3 332 83 0 82 0 -3 10 -4 10 -75 3 -76 3 -16 -16z" />
    <path d="M1788 1178 c-10 -12 -18 -28 -18 -34 0 -7 -3 -19 -6 -28 -3 -9 -2
-16 3 -16 6 0 15 18 22 40 l12 40 74 0 75 0 0 -335 0 -335 -11 0 c-5 0 -7 -5
-4 -10 l7 -11 14 12 14 12 -2 341 -3 341 -80 3 -80 2 -17 -22z" />
    <path d="M2092 1188 l-12 -12 0 -333 0 -333 10 0 10 0 0 335 0 335 50 0 50 0
0 -335 0 -335 10 0 10 0 0 333 0 333 -12 12 c-7 7 -33 12 -58 12 -25 0 -51 -5
-58 -12z" />
    <path d="M1100 1150 c0 -7 3 -10 7 -7 3 4 3 10 0 14 -4 3 -7 0 -7 -7z" />
    <path d="M1470 1148 c0 -17 18 -44 24 -37 8 7 -5 49 -15 49 -5 0 -9 -6 -9 -12z" />
    <path d="M1136 1121 c-7 -11 22 -36 31 -28 3 4 -2 9 -11 13 -9 3 -13 10 -10
15 3 5 3 9 0 9 -3 0 -7 -4 -10 -9z" />
    <path d="M1495 1078 c29 -100 71 -218 77 -218 10 0 0 46 -15 75 -6 11 -12 31
-13 45 -2 14 -8 26 -13 28 -5 2 -7 10 -4 18 3 8 1 14 -5 14 -5 0 -10 6 -9 13
1 30 -4 47 -14 47 l-10 0 6 -22z" />
    <path d="M807 1083 c-4 -3 -7 -43 -7 -88 l0 -82 13 0 12 0 0 89 c0 48 -3 88
-6 88 -3 0 -9 -3 -12 -7z" />
    <path d="M1741 1049 c-7 -23 -15 -47 -18 -55 -3 -8 -1 -14 4 -14 6 0 15 18 22
41 7 23 15 47 18 55 3 8 1 14 -4 14 -6 0 -15 -18 -22 -41z" />
    <path d="M976 1069 c3 -6 14 -9 23 -6 9 2 22 -2 29 -10 7 -7 18 -13 25 -13 23
1 -35 40 -60 40 l-24 0 7 -11z" />
    <path d="M1166 1053 c9 -37 12 -39 21 -18 l7 19 -12 4 c-7 2 -10 8 -6 13 3 5
0 9 -6 9 l-10 0 6 -27z" />
    <path d="M1050 997 l0 -34 -18 -16 c-10 -10 -30 -17 -45 -17 -14 0 -29 -5 -33
-12 l-7 -11 44 6 44 6 17 21 18 22 0 34 c0 19 -4 34 -10 34 -5 0 -10 -15 -10
-33z m0 -51 c0 -3 -5 -8 -12 -12 l-11 -7 7 11 c7 12 16 16 16 8z" />
    <path d="M1170 971 c0 -12 5 -21 10 -21 6 0 10 6 10 14 0 8 -4 18 -10 21 l-10
6 0 -20z" />
    <path d="M1410 740 l0 -230 10 0 10 0 1 198 c1 108 3 189 6 180 2 -10 9 -18
14 -18 l10 0 -7 23 c-4 12 -9 24 -13 27 -3 3 -6 11 -7 18 -2 27 -4 32 -14 32
l-10 0 0 -230z" />
    <path d="M1713 956 c3 -8 2 -16 -2 -18 -5 -2 -12 -13 -15 -25 l-7 -23 8 0 c5
0 14 15 21 33 15 41 15 47 1 47 -6 0 -9 -6 -6 -14z" />
    <path d="M1824 945 c-3 -8 -2 -19 2 -26 l7 -12 -10 6 -9 6 -33 -102 c-19 -56
-36 -108 -38 -114 -3 -7 0 -13 7 -13 6 0 8 5 5 10 -3 6 -2 10 3 10 11 0 33 70
26 82 -3 4 0 8 6 8 l12 0 -6 15 c-3 8 -2 15 3 15 4 0 13 15 19 33 l10 32 1
-191 1 -192 14 -11 14 -12 7 11 c3 5 1 10 -4 10 l-11 0 0 225 0 225 -10 0 c-6
0 -13 -7 -16 -15z" />
    <path d="M1163 933 c4 -3 10 -3 14 0 3 4 0 7 -7 7 -7 0 -10 -3 -7 -7z" />
    <path d="M1130 895 l-23 -25 39 -35 c21 -19 44 -34 49 -34 6 0 1 6 -10 15 -11
8 -19 17 -17 19 1 3 -1 5 -5 4 -3 0 -10 6 -15 15 -5 9 -13 14 -19 11 l-9 -6 6
15 c3 9 10 14 15 11 4 -3 13 4 19 15 15 28 -2 25 -30 -5z" />
    <path d="M1684 865 c3 -8 2 -15 -3 -15 -10 0 -32 -71 -25 -82 3 -4 0 -8 -6 -8
l-12 0 6 -15 5 -15 -17 0 -17 0 -1 26 c-2 26 -10 41 -19 32 -3 -2 1 -24 8 -49
l13 -44 13 0 14 0 28 85 c16 47 29 88 29 93 0 4 -5 7 -11 7 l-11 0 6 -15z" />
    <path d="M1450 850 c0 -5 5 -10 10 -10 6 0 10 5 10 10 0 6 -4 10 -10 10 -5 0
-10 -4 -10 -10z" />
    <path d="M1576 828 c8 -27 12 -33 19 -27 7 8 -7 49 -17 49 l-9 0 7 -22z" />
    <path d="M1466 808 c8 -27 12 -33 19 -27 7 8 -7 49 -17 49 l-9 0 7 -22z" />
    <path d="M800 704 l0 -106 114 3 115 4 28 21 c15 12 32 35 37 53 l9 31 -9 33
-9 32 -35 17 -35 18 -107 0 -108 0 0 -106z m250 73 l25 -4 3 -50 3 -50 -23
-25 -23 -25 -107 -2 -108 -3 0 86 0 85 98 3 c53 2 99 0 102 -4 3 -4 17 -9 30
-11z" />
    <path d="M1193 783 c4 -3 10 -3 14 0 3 4 0 7 -7 7 -7 0 -10 -3 -7 -7z" />
    <path d="M1205 708 l-1 -63 -17 -32 -18 -33 10 0 c13 0 32 35 24 44 -3 3 -1 6
6 6 l13 0 -5 20 c-3 11 -1 20 4 20 12 0 12 57 -1 65 -5 3 -7 12 -3 20 3 8 1
15 -3 15 -5 0 -9 -28 -9 -62z" />
    <path d="M1486 748 c8 -27 12 -33 19 -27 7 8 -7 49 -17 49 l-9 0 7 -22z" />
    <path d="M1506 688 c8 -28 12 -33 20 -25 9 8 -6 47 -17 47 l-10 0 7 -22z" />
    <path d="M1726 656 c-3 -13 -9 -31 -12 -40 l-6 -16 10 0 c9 0 32 51 32 71 0
19 -18 7 -24 -15z" />
    <path d="M1520 640 c0 -5 5 -10 10 -10 6 0 10 5 10 10 0 6 -4 10 -10 10 -5 0
-10 -4 -10 -10z" />
    <path d="M1536 598 c8 -28 12 -33 20 -25 9 8 -6 47 -17 47 l-10 0 7 -22z" />
    <path d="M1696 566 c-3 -13 -9 -31 -12 -40 l-6 -16 10 0 c6 0 13 8 16 18 2 9
7 27 11 40 l6 22 -9 0 c-6 0 -13 -11 -16 -24z" />
    <path d="M1140 555 c-7 -9 -10 -18 -7 -22 4 -3 9 2 13 11 3 9 11 13 17 9 l10
-6 -7 11 c-9 15 -11 15 -26 -3z" />
    <path d="M1556 538 c8 -27 12 -33 19 -27 7 8 -7 49 -17 49 l-9 0 7 -22z" />
    <path d="M1080 525 c-19 -7 -52 -14 -73 -14 l-38 -1 7 -11 6 -11 45 7 c51 7
93 24 93 37 0 4 -1 8 -2 7 -2 0 -19 -7 -38 -14z" />
  </g>
  <g transform="translate(0.000000,300.000000) scale(0.100000,-0.100000)" fill="#eeeeef" stroke="none">
    <path d="M1640 2946 c0 -2 7 -7 16 -10 l15 -6 -6 10 c-6 10 -25 14 -25 6z" />
    <path d="M1820 2916 c0 -2 7 -7 16 -10 l15 -6 -6 10 c-6 10 -25 14 -25 6z" />
    <path d="M1025 2870 l-6 -10 15 6 c18 7 21 14 7 14 -6 0 -13 -4 -16 -10z" />
    <path d="M875 2810 l-6 -10 15 6 c18 7 21 14 7 14 -6 0 -13 -4 -16 -10z" />
    <path d="M815 2780 l-6 -10 15 6 c18 7 21 14 7 14 -6 0 -13 -4 -16 -10z" />
    <path d="M1350 2680 l-15 -10 12 0 c6 0 15 5 18 10 8 12 4 12 -15 0z" />
    <path d="M1440 2686 c0 -2 7 -6 15 -10 8 -3 15 -1 15 4 0 6 -7 10 -15 10 -8 0
-15 -2 -15 -4z" />
    <path d="M1647 2679 c7 -7 15 -10 18 -7 3 3 -2 9 -12 12 l-18 7 12 -12z" />
    <path d="M1763 2653 c4 -3 10 -3 14 0 3 4 0 7 -7 7 -7 0 -10 -3 -7 -7z" />
    <path d="M1790 2654 c0 -7 52 -25 57 -20 2 2 -10 8 -26 14 -17 6 -31 9 -31 6z" />
    <path d="M575 2620 l-6 -10 15 6 c18 7 21 14 7 14 -6 0 -13 -4 -16 -10z" />
    <path d="M1110 2620 l-15 -10 12 0 c6 0 15 5 18 10 8 12 4 12 -15 0z" />
    <path d="M520 2569 c0 -5 5 -7 10 -4 6 3 10 8 10 11 0 2 -4 4 -10 4 -5 0 -10
-5 -10 -11z" />
    <path d="M2015 2549 c-4 -6 -5 -12 -2 -15 2 -3 7 2 10 11 7 17 1 20 -8 4z" />
    <path d="M469 2523 l-14 -18 18 14 c9 7 17 15 17 17 0 8 -8 3 -21 -13z" />
    <path d="M850 2480 l-15 -10 12 0 c6 0 15 5 18 10 8 12 4 12 -15 0z" />
    <path d="M420 2469 c0 -5 5 -7 10 -4 6 3 10 8 10 11 0 2 -4 4 -10 4 -5 0 -10
-5 -10 -11z" />
    <path d="M1056 2417 c3 -10 9 -15 12 -12 3 3 0 11 -7 18 l-12 12 7 -18z" />
    <path d="M1935 2409 c-4 -6 -5 -12 -2 -15 2 -3 7 2 10 11 7 17 1 20 -8 4z" />
    <path d="M2646 2387 c3 -10 9 -15 12 -12 3 3 0 11 -7 18 l-12 12 7 -18z" />
    <path d="M1010 2341 c0 -6 4 -13 10 -16 l10 -6 -6 15 c-7 18 -14 21 -14 7z" />
    <path d="M1976 2323 l-7 -18 12 12 c7 7 10 15 7 18 -3 3 -9 -2 -12 -12z" />
    <path d="M287 2303 c-4 -3 -7 -11 -7 -17 l0 -10 12 12 c6 6 9 14 7 17 -3 3 -9
2 -12 -2z" />
    <path d="M2400 2231 c0 -6 4 -13 10 -16 l10 -6 -6 15 c-7 18 -14 21 -14 7z" />
    <path d="M225 2199 c-4 -6 -5 -12 -2 -15 2 -3 7 2 10 11 7 17 1 20 -8 4z" />
    <path d="M1908 2065 l3 -146 10 6 9 6 0 117 c0 114 -6 162 -19 162 -3 0 -5
-65 -3 -145z" />
    <path d="M1840 2169 l-25 -20 33 16 c17 8 32 18 32 20 0 10 -16 4 -40 -16z" />
    <path d="M205 2159 c-4 -6 -5 -12 -2 -15 2 -3 7 2 10 11 7 17 1 20 -8 4z" />
    <path d="M1775 2130 c-3 -5 -2 -10 4 -10 5 0 13 5 16 10 3 6 2 10 -4 10 -5 0
-13 -4 -16 -10z" />
    <path d="M2365 2120 l-6 -10 15 6 c18 7 21 14 7 14 -6 0 -13 -4 -16 -10z" />
    <path d="M175 2099 c-4 -6 -5 -12 -2 -15 2 -3 7 2 10 11 7 17 1 20 -8 4z" />
    <path d="M1695 2082 l-40 -28 -3 -25 -3 -25 36 -19 c19 -11 35 -24 35 -30 0
-5 -36 -71 -79 -145 l-79 -135 -19 3 -18 3 15 -10 c8 -6 18 -11 21 -11 8 0
179 294 179 308 0 5 -16 19 -35 31 l-35 20 0 19 0 18 40 23 c22 12 40 24 40
27 0 9 -17 2 -55 -24z" />
    <path d="M2450 2080 l-15 -10 12 0 c6 0 15 5 18 10 8 12 4 12 -15 0z" />
    <path d="M697 1989 c7 -7 15 -10 18 -7 3 3 -2 9 -12 12 l-18 7 12 -12z" />
    <path d="M126 1979 c-3 -8 -14 -39 -25 -69 -21 -57 -51 -170 -51 -189 0 -6 4
-11 8 -11 4 0 14 28 21 62 7 35 23 96 36 138 14 41 22 76 20 79 -3 2 -7 -2 -9
-10z" />
    <path d="M2260 1970 l-15 -10 12 0 c6 0 15 5 18 10 8 12 4 12 -15 0z" />
    <path d="M2875 1965 c4 -11 21 -76 38 -145 18 -69 33 -127 34 -129 2 -2 6 -1
9 2 13 13 -56 260 -79 282 l-10 10 8 -20z" />
    <path d="M1744 1833 c-31 -54 -70 -119 -85 -146 -16 -26 -29 -53 -29 -60 0
-16 29 -56 30 -42 0 6 -4 15 -10 21 l-9 9 38 65 c21 36 59 102 85 147 l48 83
40 -21 c42 -22 68 -20 68 6 0 17 -17 20 -22 4 l-4 -11 -34 21 c-19 11 -40 21
-47 21 -7 0 -38 -44 -69 -97z" />
    <path d="M2565 1898 c4 -13 11 -27 16 -33 5 -5 4 5 -2 23 -12 36 -24 44 -14
10z" />
    <path d="M2580 1840 c0 -7 3 -10 7 -7 3 4 3 10 0 14 -4 3 -7 0 -7 -7z" />
    <path d="M416 1823 l-7 -18 12 12 c7 7 10 15 7 18 -3 3 -9 -2 -12 -12z" />
    <path d="M2600 1721 c0 -5 5 -13 10 -16 6 -3 10 -2 10 4 0 5 -4 13 -10 16 -5
3 -10 2 -10 -4z" />
    <path d="M396 1703 l-7 -18 12 12 c7 7 10 15 7 18 -3 3 -9 -2 -12 -12z" />
    <path d="M47 1693 c-11 -10 -8 -43 3 -43 6 0 10 11 10 25 0 26 -2 29 -13 18z" />
    <path d="M1463 1673 c4 -3 10 -3 14 0 3 4 0 7 -7 7 -7 0 -10 -3 -7 -7z" />
    <path d="M2950 1641 c0 -17 5 -31 10 -31 6 0 10 11 10 24 0 14 -4 28 -10 31
l-10 6 0 -30z" />
    <path d="M1385 1640 l-6 -10 15 6 c18 7 21 14 7 14 -6 0 -13 -4 -16 -10z" />
    <path d="M37 1613 c-11 -10 -8 -63 3 -63 6 0 10 16 10 35 0 36 -2 40 -13 28z" />
    <path d="M1335 1580 c-9 -18 -14 -34 -11 -37 2 -3 12 9 21 27 9 18 14 34 11
37 -2 3 -12 -9 -21 -27z" />
    <path d="M2960 1450 l0 -131 10 6 10 6 0 119 0 119 -10 6 -10 6 0 -131z" />
    <path d="M1666 1557 c3 -10 9 -15 12 -12 3 3 0 11 -7 18 l-12 12 7 -18z" />
    <path d="M30 1326 c0 -19 5 -38 10 -41 l10 -6 0 40 0 41 -10 0 c-5 0 -10 -15
-10 -34z" />
    <path d="M2950 1264 l0 -35 10 6 c6 3 10 19 10 36 0 16 -4 29 -10 29 -5 0 -10
-16 -10 -36z" />
    <path d="M40 1240 c0 -41 32 -177 65 -277 42 -125 94 -230 176 -354 l63 -94
120 -120 121 -121 87 -57 c116 -77 240 -138 369 -181 107 -36 159 -45 159 -26
0 6 -9 10 -20 10 -34 0 -230 70 -314 112 -235 118 -432 291 -575 505 -103 153
-194 378 -222 546 -7 42 -17 77 -21 77 -4 0 -8 -9 -8 -20z" />
    <path d="M2926 1133 c-20 -99 -72 -245 -121 -343 -18 -36 -60 -106 -93 -156
l-60 -91 -98 -102 c-106 -111 -222 -204 -338 -270 -91 -52 -238 -112 -333
-137 -69 -17 -95 -34 -55 -34 39 0 203 55 298 100 355 167 611 442 757 811 27
66 77 258 77 292 0 9 -4 17 -8 17 -4 0 -16 -39 -26 -87z" />
    <path d="M1007 1179 c7 -7 15 -10 18 -7 3 3 -2 9 -12 12 l-18 7 12 -12z" />
    <path d="M1470 1141 c0 -5 5 -13 10 -16 6 -3 10 -2 10 4 0 5 -4 13 -10 16 -5
3 -10 2 -10 -4z" />
    <path d="M950 1086 c0 -2 7 -7 16 -10 l15 -6 -6 10 c-6 10 -25 14 -25 6z" />
    <path d="M1160 1071 c0 -6 4 -13 10 -16 l10 -6 -6 15 c-7 18 -14 21 -14 7z" />
    <path d="M1172 1004 l0 -39 10 21 10 22 -10 18 -10 18 0 -40z" />
    <path d="M1520 991 c0 -6 4 -13 10 -16 l10 -6 -6 15 c-7 18 -14 21 -14 7z" />
    <path d="M1410 980 c0 -5 5 -10 10 -10 6 0 10 5 10 10 0 6 -4 10 -10 10 -5 0
-10 -4 -10 -10z" />
    <path d="M1831 967 c-15 -39 -14 -45 5 -19 8 12 13 28 11 35 l-5 12 -11 -28z" />
    <path d="M1716 943 l-7 -18 12 12 c7 7 10 15 7 18 -3 3 -9 -2 -12 -12z" />
    <path d="M1030 930 l-15 -10 12 0 c6 0 15 5 18 10 8 12 4 12 -15 0z" />
    <path d="M1799 874 c-5 -15 -8 -29 -5 -31 2 -2 8 10 14 26 13 38 5 41 -9 5z" />
    <path d="M1117 859 c7 -7 15 -10 18 -7 3 3 -2 9 -12 12 l-18 7 12 -12z" />
    <path d="M1676 823 l-7 -18 12 12 c7 7 10 15 7 18 -3 3 -9 -2 -12 -12z" />
    <path d="M1000 806 c0 -2 7 -7 16 -10 l15 -6 -6 10 c-6 10 -25 14 -25 6z" />
    <path d="M1068 772 c9 -10 19 -17 21 -16 6 5 -20 34 -30 34 -5 0 -1 -8 9 -18z" />
    <path d="M1765 769 c-4 -6 -5 -12 -2 -15 2 -3 7 2 10 11 7 17 1 20 -8 4z" />
    <path d="M1600 741 c0 -6 4 -13 10 -16 l10 -6 -6 15 c-7 18 -14 21 -14 7z" />
    <path d="M1636 703 l-7 -18 12 12 c7 7 10 15 7 18 -3 3 -9 -2 -12 -12z" />
    <path d="M1510 691 c0 -5 5 -13 10 -16 6 -3 10 -2 10 4 0 5 -4 13 -10 16 -5 3
-10 2 -10 -4z" />
    <path d="M1205 669 c-4 -6 -5 -12 -2 -15 2 -3 7 2 10 11 7 17 1 20 -8 4z" />
    <path d="M800 610 c0 -5 5 -10 11 -10 5 0 7 5 4 10 -3 6 -8 10 -11 10 -2 0 -4
-4 -4 -10z" />
    <path d="M1185 609 c-4 -6 -5 -12 -2 -15 2 -3 7 2 10 11 7 17 1 20 -8 4z" />
    <path d="M983 603 c4 -3 10 -3 14 0 3 4 0 7 -7 7 -7 0 -10 -3 -7 -7z" />
    <path d="M1540 601 c0 -5 5 -13 10 -16 6 -3 10 -2 10 4 0 5 -4 13 -10 16 -5 3
-10 2 -10 -4z" />
    <path d="M1075 520 l-6 -10 15 6 c18 7 21 14 7 14 -6 0 -13 -4 -16 -10z" />
  </g>
  <g transform="translate(0.000000,300.000000) scale(0.100000,-0.100000)" fill="#0d0f10" stroke="none">
    <path d="M1430 1325 c0 -8 7 -15 15 -15 8 0 15 4 15 9 0 5 -7 11 -15 15 l-15
5 0 -14z" />
    <path d="M1553 1333 c-18 -7 -16 -23 2 -23 8 0 15 7 15 15 0 8 -1 15 -2 14 -2
0 -9 -3 -15 -6z" />
    <path d="M1470 1315 l0 -15 30 0 30 0 0 15 0 15 -30 0 -30 0 0 -15z" />
    <path d="M2852 975 c-15 -33 -15 -35 2 -35 12 0 25 28 26 53 0 17 -18 5 -28
-18z" />
    <path d="M140 949 c0 -26 95 -210 157 -304 l67 -100 110 -110 111 -111 90 -61
c164 -111 326 -180 526 -225 l104 -23 200 0 200 1 105 23 c202 43 402 135 570
260 99 73 231 208 304 311 61 84 166 278 166 305 0 33 -18 11 -62 -77 -25 -51
-74 -133 -109 -183 -79 -110 -219 -251 -327 -328 -169 -121 -395 -218 -584
-251 -47 -8 -133 -18 -190 -22 l-103 -6 -110 11 c-269 29 -500 116 -717 271
-35 25 -110 92 -168 150 l-106 105 -66 100 c-37 55 -85 139 -109 188 -38 79
-59 106 -59 76z" />
  </g>
  <g transform="translate(0.000000,300.000000) scale(0.100000,-0.100000)" fill="#d8e9fb" stroke="none">
    <path d="M1346 2941 l-5 -8 24 5 c14 2 25 6 25 8 0 8 -39 4 -44 -5z" />
    <path d="M1628 2943 c7 -3 16 -2 19 1 4 3 -2 6 -13 5 l-19 -1 13 -5z" />
    <path d="M1703 2933 c4 -3 10 -3 14 0 3 4 0 7 -7 7 -7 0 -10 -3 -7 -7z" />
    <path d="M1223 2923 c4 -3 10 -3 14 0 3 4 0 7 -7 7 -7 0 -10 -3 -7 -7z" />
    <path d="M1165 2910 l-6 -10 15 6 c18 7 21 14 7 14 -6 0 -13 -4 -16 -10z" />
    <path d="M1853 2903 c4 -3 10 -3 14 0 3 4 0 7 -7 7 -7 0 -10 -3 -7 -7z" />
    <path d="M1890 2896 c0 -2 7 -7 16 -10 l15 -6 -6 10 c-6 10 -25 14 -25 6z" />
    <path d="M1055 2880 l-6 -10 15 6 c18 7 21 14 7 14 -6 0 -13 -4 -16 -10z" />
    <path d="M1953 2873 c4 -3 10 -3 14 0 3 4 0 7 -7 7 -7 0 -10 -3 -7 -7z" />
    <path d="M1983 2863 c4 -3 10 -3 14 0 3 4 0 7 -7 7 -7 0 -10 -3 -7 -7z" />
    <path d="M2010 2856 c0 -2 7 -7 16 -10 l15 -6 -6 10 c-6 10 -25 14 -25 6z" />
    <path d="M934 2834 l-19 -15 25 12 c31 14 36 19 24 19 -6 0 -19 -7 -30 -16z" />
    <path d="M2080 2826 c0 -2 7 -7 16 -10 l15 -6 -6 10 c-6 10 -25 14 -25 6z" />
    <path d="M730 2729 l-25 -20 20 10 c33 17 51 31 40 31 -5 0 -21 -10 -35 -21z" />
    <path d="M2250 2736 c0 -2 7 -7 16 -10 l15 -6 -6 10 c-6 10 -25 14 -25 6z" />
    <path d="M2324 2691 c7 -11 46 -35 46 -28 0 3 -12 12 -26 22 -15 9 -23 12 -20
6z" />
    <path d="M655 2680 l-6 -10 15 6 c18 7 21 14 7 14 -6 0 -13 -4 -16 -10z" />
    <path d="M1428 2683 c7 -3 16 -2 19 1 4 3 -2 6 -13 5 l-19 -1 13 -5z" />
    <path d="M1553 2683 c9 -2 23 -2 30 0 6 3 -1 5 -18 5 l-30 0 18 -5z" />
    <path d="M1285 2670 l-20 -9 17 0 c9 -1 20 4 23 9 7 11 7 11 -20 0z" />
    <path d="M1333 2673 c4 -3 10 -3 14 0 3 4 0 7 -7 7 -7 0 -10 -3 -7 -7z" />
    <path d="M1663 2673 c4 -3 10 -3 14 0 3 4 0 7 -7 7 -7 0 -10 -3 -7 -7z" />
    <path d="M1708 2668 c5 -5 16 -8 23 -6 l13 4 -23 7 -24 6 11 -11z" />
    <path d="M1233 2653 c4 -3 10 -3 14 0 3 4 0 7 -7 7 -7 0 -10 -3 -7 -7z" />
    <path d="M1170 2640 c-18 -12 -2 -12 25 0 l20 9 -15 0 c-8 0 -22 -4 -30 -9z" />
    <path d="M2380 2646 c0 -2 7 -7 16 -10 l15 -6 -6 10 c-6 10 -25 14 -25 6z" />
    <path d="M1070 2605 c-14 -8 -20 -14 -14 -15 5 0 19 7 30 15 24 18 16 19 -16
0z" />
    <path d="M1924 2606 c11 -9 24 -16 30 -16 12 0 7 5 -24 19 l-25 12 19 -15z" />
    <path d="M2431 2607 c2 -1 13 -9 24 -17 l20 -15 -14 18 c-7 9 -18 17 -24 17
-6 0 -8 -1 -6 -3z" />
    <path d="M985 2560 c-3 -5 -2 -18 4 -27 l9 -17 -1 27 c-1 15 -3 27 -4 27 -1 0
-5 -4 -8 -10z" />
    <path d="M484 2538 l-7 -11 11 7 c12 7 16 16 8 16 -3 0 -8 -5 -12 -12z" />
    <path d="M2005 2529 c-4 -6 -5 -12 -2 -15 2 -3 7 2 10 11 7 17 1 20 -8 4z" />
    <path d="M454 2508 l-7 -11 11 7 c12 7 16 16 8 16 -3 0 -8 -5 -12 -12z" />
    <path d="M2084 2508 l-7 -11 12 7 12 8 27 -17 27 -16 -24 20 c-27 24 -37 26
-47 9z" />
    <path d="M930 2481 c0 -6 4 -13 10 -16 l10 -6 -6 15 c-7 18 -14 21 -14 7z" />
    <path d="M1026 2467 c3 -10 9 -15 12 -12 3 3 0 11 -7 18 l-12 12 7 -18z" />
    <path d="M2056 2463 l-7 -18 12 12 c7 7 10 15 7 18 -3 3 -9 -2 -12 -12z" />
    <path d="M816 2455 c-11 -8 -15 -15 -9 -15 6 0 16 7 23 15 16 19 11 19 -14 0z" />
    <path d="M1965 2459 c-4 -6 -5 -12 -2 -15 2 -3 7 2 10 11 7 17 1 20 -8 4z" />
    <path d="M2175 2460 c3 -5 8 -10 11 -10 3 0 2 5 -1 10 -3 6 -8 10 -11 10 -3 0
-2 -4 1 -10z" />
    <path d="M2606 2437 c3 -10 9 -15 12 -12 3 3 0 11 -7 18 l-12 12 7 -18z" />
    <path d="M375 2419 c-4 -6 -5 -12 -2 -15 2 -3 7 2 10 11 7 17 1 20 -8 4z" />
    <path d="M2235 2410 c10 -11 20 -20 23 -20 3 0 -3 9 -13 20 -10 11 -20 20 -23
20 -3 0 3 -9 13 -20z" />
    <path d="M970 2411 c0 -6 4 -13 10 -16 l10 -6 -6 15 c-7 18 -14 21 -14 7z" />
    <path d="M2020 2400 c-6 -11 -8 -20 -6 -20 3 0 10 9 16 20 6 11 8 20 6 20 -3
0 -10 -9 -16 -20z" />
    <path d="M715 2358 l-50 -53 53 50 c28 27 52 51 52 52 0 8 -9 -1 -55 -49z" />
    <path d="M1066 2397 c3 -10 9 -15 12 -12 3 3 0 11 -7 18 l-12 12 7 -18z" />
    <path d="M1925 2389 c-4 -6 -5 -12 -2 -15 2 -3 7 2 10 11 7 17 1 20 -8 4z" />
    <path d="M1000 2361 c0 -6 4 -13 10 -16 l10 -6 -6 15 c-7 18 -14 21 -14 7z" />
    <path d="M1096 2347 c3 -10 9 -15 12 -12 3 3 0 11 -7 18 l-12 12 7 -18z" />
    <path d="M1986 2343 l-7 -18 12 12 c7 7 10 15 7 18 -3 3 -9 -2 -12 -12z" />
    <path d="M2685 2333 c44 -68 65 -97 65 -90 0 9 -71 117 -78 117 -2 0 4 -12 13
-27z" />
    <path d="M1895 2339 c-4 -6 -5 -12 -2 -15 2 -3 7 2 10 11 7 17 1 20 -8 4z" />
    <path d="M2335 2310 c10 -11 20 -20 23 -20 3 0 -3 9 -13 20 -10 11 -20 20 -23
20 -3 0 3 -9 13 -20z" />
    <path d="M1070 2301 c-8 -6 -18 -7 -22 -5 -4 3 -8 0 -8 -5 0 -15 13 -14 36 4
21 16 17 20 -6 6z" />
    <path d="M1917 2299 c7 -7 15 -10 18 -7 3 3 -2 9 -12 12 l-18 7 12 -12z" />
    <path d="M626 2263 l-7 -18 12 12 c7 7 10 15 7 18 -3 3 -9 -2 -12 -12z" />
    <path d="M255 2249 c-4 -6 -5 -12 -2 -15 2 -3 7 2 10 11 7 17 1 20 -8 4z" />
    <path d="M2385 2250 c3 -5 8 -10 11 -10 3 0 2 5 -1 10 -3 6 -8 10 -11 10 -3 0
-2 -4 1 -10z" />
    <path d="M596 2223 l-7 -18 12 12 c7 7 10 15 7 18 -3 3 -9 -2 -12 -12z" />
    <path d="M2425 2198 l17 -27 -8 -12 -7 -12 11 7 c17 10 15 20 -9 47 l-20 24
16 -27z" />
    <path d="M560 2169 c0 -9 12 -21 28 -28 l27 -13 -15 14 c-8 7 -21 19 -27 27
l-13 15 0 -15z" />
    <path d="M2385 2130 l-6 -10 15 6 c18 7 21 14 7 14 -6 0 -13 -4 -16 -10z" />
    <path d="M631 2116 c2 -2 15 -9 29 -15 l25 -12 -19 15 c-11 9 -24 16 -30 16
-5 0 -7 -2 -5 -4z" />
    <path d="M527 2089 c7 -7 15 -10 18 -7 3 3 -2 9 -12 12 l-18 7 12 -12z" />
    <path d="M2315 2090 l-6 -10 15 6 c18 7 21 14 7 14 -6 0 -13 -4 -16 -10z" />
    <path d="M701 2076 c2 -2 15 -9 29 -15 l25 -12 -19 15 c-11 9 -24 16 -30 16
-5 0 -7 -2 -5 -4z" />
    <path d="M2430 2070 l-15 -10 12 0 c6 0 15 5 18 10 8 12 4 12 -15 0z" />
    <path d="M487 2035 c-9 -19 -15 -35 -12 -35 7 0 37 61 33 66 -3 2 -12 -12 -21
-31z" />
    <path d="M584 2056 c11 -9 24 -16 30 -16 12 0 7 5 -24 19 l-25 12 19 -15z" />
    <path d="M2245 2050 l-6 -10 15 6 c18 7 21 14 7 14 -6 0 -13 -4 -16 -10z" />
    <path d="M2380 2040 l-15 -10 12 0 c6 0 15 5 18 10 8 12 4 12 -15 0z" />
    <path d="M778 2033 c6 -2 9 -10 6 -15 l-7 -11 12 7 c13 9 5 26 -12 25 l-12 -1
13 -5z" />
    <path d="M654 2016 c11 -9 24 -16 30 -16 12 0 7 5 -24 19 l-25 12 19 -15z" />
    <path d="M2520 2024 c0 -6 7 -19 16 -30 l15 -19 -12 25 c-14 31 -19 36 -19 24z" />
    <path d="M2310 2000 l-15 -10 12 0 c6 0 15 5 18 10 8 12 4 12 -15 0z" />
    <path d="M717 1979 c7 -7 15 -10 18 -7 3 3 -2 9 -12 12 l-18 7 12 -12z" />
    <path d="M756 1973 l-7 -18 12 12 c7 7 10 15 7 18 -3 3 -9 -2 -12 -12z" />
    <path d="M2230 1981 c0 -6 4 -13 10 -16 l10 -6 -6 15 c-7 18 -14 21 -14 7z" />
    <path d="M451 1949 c-6 -18 -11 -37 -10 -43 0 -6 7 7 15 28 8 22 12 41 10 43
-2 2 -9 -10 -15 -28z" />
    <path d="M426 1865 c-3 -9 -6 -22 -5 -28 0 -7 5 -1 10 12 5 13 8 26 5 28 -2 2
-6 -3 -10 -12z" />
    <path d="M2590 1796 c0 -8 4 -17 9 -20 l9 -6 -5 20 c-6 23 -13 26 -13 6z" />
    <path d="M410 1790 c0 -7 3 -10 7 -7 3 4 3 10 0 14 -4 3 -7 0 -7 -7z" />
    <path d="M2600 1736 c0 -8 4 -17 9 -20 l9 -6 -5 20 c-6 23 -13 26 -13 6z" />
    <path d="M401 1724 l1 -19 5 13 c3 7 2 16 -1 19 -3 4 -6 -2 -5 -13z" />
    <path d="M2612 1630 c0 -14 2 -19 5 -12 2 6 2 18 0 25 -3 6 -5 1 -5 -13z" />
    <path d="M663 1570 c0 -25 2 -35 4 -22 2 12 2 32 0 45 -2 12 -4 2 -4 -23z" />
    <path d="M2333 1570 c0 -25 2 -35 4 -22 2 12 2 32 0 45 -2 12 -4 2 -4 -23z" />
    <path d="M1305 1179 c-11 -17 1 -21 15 -4 l12 15 -10 0 c-6 0 -14 -5 -17 -11z" />
    <path d="M1455 1180 c3 -5 8 -10 11 -10 2 0 4 5 4 10 0 6 -5 10 -11 10 -5 0
-7 -4 -4 -10z" />
    <path d="M695 840 l0 -335 153 0 152 -1 -150 3 -150 4 -3 332 -2 332 0 -335z" />
    <path d="M1047 1169 c7 -7 15 -10 18 -7 3 3 -2 9 -12 12 l-18 7 12 -12z" />
    <path d="M1781 1149 c-6 -18 -11 -37 -10 -43 0 -6 7 7 15 28 8 22 12 41 10 43
-2 2 -9 -10 -15 -28z" />
    <path d="M2095 840 l0 -335 55 0 55 0 0 340 0 340 -2 -337 -3 -338 -50 0 -50
0 -3 333 -2 332 0 -335z" />
    <path d="M1130 1115 c13 -14 26 -25 28 -25 3 0 -5 11 -18 25 -13 14 -26 25
-28 25 -3 0 5 -11 18 -25z" />
    <path d="M804 1077 c-3 -8 -3 -49 -1 -93 l3 -79 2 87 2 87 78 4 77 3 -78 2
-78 2 -5 -13z" />
    <path d="M1751 1059 c-6 -18 -11 -37 -10 -43 0 -6 7 7 15 28 8 22 12 41 10 43
-2 2 -9 -10 -15 -28z" />
    <path d="M1001 1076 c2 -2 15 -9 29 -15 l25 -12 -19 15 c-11 9 -24 16 -30 16
-5 0 -7 -2 -5 -4z" />
    <path d="M1505 1038 c4 -13 11 -27 16 -33 5 -5 4 5 -2 23 -12 36 -24 44 -14
10z" />
    <path d="M1170 1040 c0 -7 3 -10 7 -7 3 4 3 10 0 14 -4 3 -7 0 -7 -7z" />
    <path d="M1060 1020 c0 -7 3 -10 7 -7 3 4 3 10 0 14 -4 3 -7 0 -7 -7z" />
    <path d="M1840 980 c0 -7 3 -10 7 -7 3 4 3 10 0 14 -4 3 -7 0 -7 -7z" />
    <path d="M1051 953 l-11 -28 15 19 c8 11 15 23 15 28 0 15 -7 8 -19 -19z" />
    <path d="M1170 970 c0 -7 3 -10 7 -7 3 4 3 10 0 14 -4 3 -7 0 -7 -7z" />
    <path d="M1410 746 l0 -235 -52 -4 -53 -3 53 -2 53 -2 4 13 c8 22 10 467 3
467 -5 0 -8 -106 -8 -234z" />
    <path d="M1537 950 c3 -14 12 -41 20 -60 l13 -35 -5 29 c-4 16 -13 43 -20 60
l-15 31 7 -25z" />
    <path d="M1430 940 c0 -7 3 -10 7 -7 3 4 3 10 0 14 -4 3 -7 0 -7 -7z" />
    <path d="M1815 919 c-4 -6 -5 -12 -2 -15 2 -3 7 2 10 11 7 17 1 20 -8 4z" />
    <path d="M993 913 c4 -3 10 -3 14 0 3 4 0 7 -7 7 -7 0 -10 -3 -7 -7z" />
    <path d="M1129 893 l-24 -28 28 24 c25 23 32 31 24 31 -2 0 -14 -12 -28 -27z" />
    <path d="M1441 910 c0 -8 4 -22 9 -30 12 -18 12 -2 0 25 l-9 20 0 -15z" />
    <path d="M1686 853 l-7 -18 12 12 c7 7 10 15 7 18 -3 3 -9 -2 -12 -12z" />
    <path d="M1460 850 c0 -7 3 -10 7 -7 3 4 3 10 0 14 -4 3 -7 0 -7 -7z" />
    <path d="M1160 825 c13 -14 26 -25 28 -25 3 0 -5 11 -18 25 -13 14 -26 25 -28
25 -3 0 5 -11 18 -25z" />
    <path d="M1571 845 c0 -5 4 -19 9 -30 l9 -20 0 15 c0 8 -4 22 -9 30 -5 8 -9
11 -9 5z" />
    <path d="M1779 814 c-5 -15 -8 -29 -5 -31 2 -2 8 10 14 26 13 38 5 41 -9 5z" />
    <path d="M1471 820 c0 -8 4 -22 9 -30 12 -18 12 -2 0 25 l-9 20 0 -15z" />
    <path d="M800 711 c0 -55 3 -102 8 -104 4 -3 7 42 7 99 0 57 -3 104 -7 104 -5
0 -8 -45 -8 -99z" />
    <path d="M993 803 c4 -3 10 -3 14 0 3 4 0 7 -7 7 -7 0 -10 -3 -7 -7z" />
    <path d="M1030 796 c0 -2 7 -7 16 -10 l15 -6 -6 10 c-6 10 -25 14 -25 6z" />
    <path d="M1652 751 c-6 -17 -9 -31 -6 -31 7 0 25 52 20 57 -2 2 -8 -10 -14
-26z" />
    <path d="M1200 751 c0 -6 4 -13 10 -16 l10 -6 -6 15 c-7 18 -14 21 -14 7z" />
    <path d="M1749 724 c-5 -15 -8 -29 -5 -31 2 -2 8 10 14 26 13 38 5 41 -9 5z" />
    <path d="M1090 730 c0 -7 3 -10 7 -7 3 4 3 10 0 14 -4 3 -7 0 -7 -7z" />
    <path d="M1500 730 c0 -7 3 -10 7 -7 3 4 3 10 0 14 -4 3 -7 0 -7 -7z" />
    <path d="M1610 714 c0 -6 7 -19 15 -30 8 -10 14 -14 14 -9 0 6 -6 19 -14 29
-8 11 -15 15 -15 10z" />
    <path d="M1510 700 c0 -7 3 -10 7 -7 3 4 3 10 0 14 -4 3 -7 0 -7 -7z" />
    <path d="M1090 690 c0 -7 3 -10 7 -7 3 4 3 10 0 14 -4 3 -7 0 -7 -7z" />
    <path d="M1722 643 c-15 -48 -8 -55 8 -8 7 20 10 38 8 41 -3 2 -10 -13 -16
-33z" />
    <path d="M1080 662 c0 -7 -15 -21 -32 -32 -18 -11 -28 -20 -21 -20 18 0 69 47
61 56 -5 4 -8 2 -8 -4z" />
    <path d="M1201 653 c-1 -6 -4 -20 -7 -30 l-6 -18 12 18 c6 10 9 23 6 30 l-4
12 -1 -12z" />
    <path d="M973 603 c4 -3 10 -3 14 0 3 4 0 7 -7 7 -7 0 -10 -3 -7 -7z" />
    <path d="M1154 568 l-19 -23 23 19 c12 11 22 21 22 23 0 8 -8 2 -26 -19z" />
    <path d="M1691 551 l-12 -43 -54 4 c-29 1 -51 0 -48 -4 2 -5 27 -8 54 -8 l50
0 15 36 c8 20 13 41 12 46 -2 6 -10 -8 -17 -31z" />
    <path d="M1053 513 c4 -3 10 -3 14 0 3 4 0 7 -7 7 -7 0 -10 -3 -7 -7z" />
    <path d="M1873 503 c15 -2 39 -2 55 0 15 2 2 4 -28 4 -30 0 -43 -2 -27 -4z" />
  </g>
  <g transform="translate(0.000000,300.000000) scale(0.100000,-0.100000)" fill="#d7d5d6" stroke="none">
    <path d="M2782 2175 c12 -24 23 -43 26 -41 4 5 -36 86 -43 86 -3 0 5 -20 17
-45z" />
    <path d="M1875 2190 l-6 -10 15 6 c18 7 21 14 7 14 -6 0 -13 -4 -16 -10z" />
    <path d="M215 2179 c-4 -6 -5 -12 -2 -15 2 -3 7 2 10 11 7 17 1 20 -8 4z" />
    <path d="M1911 2164 l1 -19 5 13 c3 7 2 16 -1 19 -3 4 -6 -2 -5 -13z" />
    <path d="M190 2129 c-7 -11 -10 -23 -7 -25 2 -2 9 7 15 21 14 30 7 33 -8 4z" />
    <path d="M1795 2140 l-6 -10 15 6 c18 7 21 14 7 14 -6 0 -13 -4 -16 -10z" />
    <path d="M1745 2110 l-6 -10 15 6 c18 7 21 14 7 14 -6 0 -13 -4 -16 -10z" />
    <path d="M2816 2107 c3 -10 9 -15 12 -12 3 3 0 11 -7 18 l-12 12 7 -18z" />
    <path d="M1900 1990 c0 -49 -3 -90 -7 -90 -5 1 -19 7 -33 15 -14 8 -35 14 -46
15 l-22 0 -86 -150 -87 -150 27 -38 c27 -38 28 -36 5 9 l-13 26 30 49 c16 27
55 93 86 147 l57 98 35 -20 c42 -25 60 -26 68 -5 3 9 6 54 6 100 l0 84 -10 0
-10 0 0 -90z" />
    <path d="M2842 2049 c6 -16 12 -28 14 -26 5 5 -13 57 -20 57 -3 0 0 -14 6 -31z" />
    <path d="M146 2028 c-18 -43 -30 -84 -23 -78 8 7 46 110 41 110 -3 0 -11 -15
-18 -32z" />
    <path d="M1662 2034 l3 -27 38 -24 37 -23 0 13 c0 8 -11 19 -25 25 -14 7 -30
23 -35 37 -12 33 -22 32 -18 -1z" />
    <path d="M2866 1987 c3 -10 9 -15 12 -12 3 3 0 11 -7 18 l-12 12 7 -18z" />
    <path d="M2894 1901 c6 -22 15 -43 20 -48 l8 -8 -7 25 c-13 42 -24 70 -29 70
-2 0 1 -18 8 -39z" />
    <path d="M101 1898 c-5 -13 -12 -34 -16 -48 l-7 -25 8 8 c10 9 34 87 28 87 -3
0 -8 -10 -13 -22z" />
    <path d="M1695 1899 c-4 -6 -5 -12 -2 -15 2 -3 7 2 10 11 7 17 1 20 -8 4z" />
    <path d="M1655 1829 c-4 -6 -5 -12 -2 -15 2 -3 7 2 10 11 7 17 1 20 -8 4z" />
    <path d="M2910 1831 c0 -5 5 -13 10 -16 6 -3 10 -2 10 4 0 5 -4 13 -10 16 -5
3 -10 2 -10 -4z" />
    <path d="M76 1809 c-8 -21 -25 -102 -26 -116 0 -7 4 -13 9 -13 5 0 13 30 19
68 9 64 8 91 -2 61z" />
    <path d="M2923 1780 c3 -14 9 -49 13 -77 3 -29 10 -53 15 -53 5 0 9 7 9 15 0
30 -23 120 -32 130 l-11 10 6 -25z" />
    <path d="M1625 1779 c-4 -6 -5 -12 -2 -15 2 -3 7 2 10 11 7 17 1 20 -8 4z" />
    <path d="M1585 1709 c-4 -6 -5 -12 -2 -15 2 -3 7 2 10 11 7 17 1 20 -8 4z" />
    <path d="M1523 1673 c4 -3 10 -3 14 0 3 4 0 7 -7 7 -7 0 -10 -3 -7 -7z" />
    <path d="M47 1663 c-11 -10 -8 -53 3 -53 6 0 10 14 10 30 0 31 -2 35 -13 23z" />
    <path d="M2950 1596 c0 -20 5 -36 10 -36 6 0 10 13 10 29 0 17 -4 33 -10 36
l-10 6 0 -35z" />
    <path d="M1355 1609 c-4 -6 -5 -12 -2 -15 2 -3 7 2 10 11 7 17 1 20 -8 4z" />
    <path d="M37 1563 c-4 -3 -7 -53 -7 -109 l0 -103 10 -6 10 -6 0 115 c0 64 -1
116 -3 116 -2 0 -7 -3 -10 -7z" />
    <path d="M1325 1549 c-4 -6 -5 -12 -2 -15 2 -3 7 2 10 11 7 17 1 20 -8 4z" />
    <path d="M2950 1314 l0 -35 10 6 c6 3 10 19 10 36 0 16 -4 29 -10 29 -5 0 -10
-16 -10 -36z" />
    <path d="M40 1276 c0 -14 5 -28 10 -31 l10 -6 0 30 c0 17 -4 31 -10 31 -5 0
-10 -11 -10 -24z" />
    <path d="M2928 1172 c-52 -267 -187 -526 -381 -729 -50 -52 -129 -123 -175
-158 -159 -119 -355 -212 -530 -251 -78 -18 -107 -34 -60 -34 37 0 179 42 277
81 192 78 349 187 505 350 l98 102 60 91 c33 50 74 118 90 151 51 99 98 231
124 345 26 116 29 140 17 140 -5 0 -16 -40 -25 -88z" />
    <path d="M55 1188 c14 -83 47 -194 86 -293 159 -401 488 -711 900 -848 57 -19
125 -38 152 -42 l47 -7 0 10 c0 5 -19 12 -42 16 -78 12 -251 76 -356 131 -57
30 -139 80 -183 111 -101 73 -237 206 -310 304 -75 100 -150 232 -193 341 -36
90 -86 264 -86 300 0 10 -5 19 -11 19 l-11 0 7 -42z" />
  </g>
  <g transform="translate(0.000000,300.000000) scale(0.100000,-0.100000)" fill="#b5d9f9" stroke="none">
    <path d="M1388 2943 c7 -3 16 -2 19 1 4 3 -2 6 -13 5 l-19 -1 13 -5z" />
    <path d="M1598 2943 c6 -2 18 -2 25 0 6 3 1 5 -13 5 -14 0 -19 -2 -12 -5z" />
    <path d="M1293 2933 c4 -3 10 -3 14 0 3 4 0 7 -7 7 -7 0 -10 -3 -7 -7z" />
    <path d="M1693 2933 c4 -3 10 -3 14 0 3 4 0 7 -7 7 -7 0 -10 -3 -7 -7z" />
    <path d="M1233 2923 c4 -3 10 -3 14 0 3 4 0 7 -7 7 -7 0 -10 -3 -7 -7z" />
    <path d="M1763 2923 c4 -3 10 -3 14 0 3 4 0 7 -7 7 -7 0 -10 -3 -7 -7z" />
    <path d="M1183 2913 c4 -3 10 -3 14 0 3 4 0 7 -7 7 -7 0 -10 -3 -7 -7z" />
    <path d="M1808 2913 c7 -3 16 -2 19 1 4 3 -2 6 -13 5 l-19 -1 13 -5z" />
    <path d="M1143 2903 c4 -3 10 -3 14 0 3 4 0 7 -7 7 -7 0 -10 -3 -7 -7z" />
    <path d="M1103 2893 c4 -3 10 -3 14 0 3 4 0 7 -7 7 -7 0 -10 -3 -7 -7z" />
    <path d="M1073 2883 c4 -3 10 -3 14 0 3 4 0 7 -7 7 -7 0 -10 -3 -7 -7z" />
    <path d="M1923 2883 c4 -3 10 -3 14 0 3 4 0 7 -7 7 -7 0 -10 -3 -7 -7z" />
    <path d="M1043 2873 c4 -3 10 -3 14 0 3 4 0 7 -7 7 -7 0 -10 -3 -7 -7z" />
    <path d="M1013 2863 c4 -3 10 -3 14 0 3 4 0 7 -7 7 -7 0 -10 -3 -7 -7z" />
    <path d="M975 2850 l-6 -10 15 6 c18 7 21 14 7 14 -6 0 -13 -4 -16 -10z" />
    <path d="M2030 2846 c0 -2 7 -7 16 -10 l15 -6 -6 10 c-6 10 -25 14 -25 6z" />
    <path d="M913 2823 c4 -3 10 -3 14 0 3 4 0 7 -7 7 -7 0 -10 -3 -7 -7z" />
    <path d="M2101 2816 c10 -9 109 -56 109 -51 0 5 -95 55 -106 55 -4 0 -5 -2 -3
-4z" />
    <path d="M774 2754 l-19 -15 25 12 c31 14 36 19 24 19 -6 0 -19 -7 -30 -16z" />
    <path d="M734 2728 l-7 -11 11 7 c7 4 12 9 12 12 0 8 -9 4 -16 -8z" />
    <path d="M2295 2710 c3 -5 8 -10 11 -10 3 0 2 5 -1 10 -3 6 -8 10 -11 10 -3 0
-2 -4 1 -10z" />
    <path d="M685 2700 l-6 -10 15 6 c18 7 21 14 7 14 -6 0 -13 -4 -16 -10z" />
    <path d="M1408 2683 c7 -3 16 -2 19 1 4 3 -2 6 -13 5 l-19 -1 13 -5z" />
    <path d="M1462 2553 c-1 -79 1 -143 6 -143 4 0 6 44 4 97 -4 174 -8 191 -10
46z" />
    <path d="M1588 2683 c7 -3 16 -2 19 1 4 3 -2 6 -13 5 l-19 -1 13 -5z" />
    <path d="M1323 2673 c4 -3 10 -3 14 0 3 4 0 7 -7 7 -7 0 -10 -3 -7 -7z" />
    <path d="M1673 2673 c4 -3 10 -3 14 0 3 4 0 7 -7 7 -7 0 -10 -3 -7 -7z" />
    <path d="M1263 2663 c4 -3 10 -3 14 0 3 4 0 7 -7 7 -7 0 -10 -3 -7 -7z" />
    <path d="M1733 2663 c4 -3 10 -3 14 0 3 4 0 7 -7 7 -7 0 -10 -3 -7 -7z" />
    <path d="M2365 2660 c3 -5 8 -10 11 -10 3 0 2 5 -1 10 -3 6 -8 10 -11 10 -3 0
-2 -4 1 -10z" />
    <path d="M614 2648 l-7 -11 11 7 c7 4 12 9 12 12 0 8 -9 4 -16 -8z" />
    <path d="M1223 2653 c4 -3 10 -3 14 0 3 4 0 7 -7 7 -7 0 -10 -3 -7 -7z" />
    <path d="M1773 2653 c4 -3 10 -3 14 0 3 4 0 7 -7 7 -7 0 -10 -3 -7 -7z" />
    <path d="M1813 2643 c4 -3 10 -3 14 0 3 4 0 7 -7 7 -7 0 -10 -3 -7 -7z" />
    <path d="M1153 2633 c4 -3 10 -3 14 0 3 4 0 7 -7 7 -7 0 -10 -3 -7 -7z" />
    <path d="M1843 2633 c4 -3 10 -3 14 0 3 4 0 7 -7 7 -7 0 -10 -3 -7 -7z" />
    <path d="M2405 2630 c3 -5 8 -10 11 -10 3 0 2 5 -1 10 -3 6 -8 10 -11 10 -3 0
-2 -4 1 -10z" />
    <path d="M1123 2623 c4 -3 10 -3 14 0 3 4 0 7 -7 7 -7 0 -10 -3 -7 -7z" />
    <path d="M1873 2623 c4 -3 10 -3 14 0 3 4 0 7 -7 7 -7 0 -10 -3 -7 -7z" />
    <path d="M559 2603 l-14 -18 18 14 c9 7 17 15 17 17 0 8 -8 3 -21 -13z" />
    <path d="M1903 2613 c4 -3 10 -3 14 0 3 4 0 7 -7 7 -7 0 -10 -3 -7 -7z" />
    <path d="M1971 2587 c2 -2 18 -11 34 -21 l30 -17 -24 20 c-13 12 -28 21 -34
21 -6 0 -8 -1 -6 -3z" />
    <path d="M2465 2580 c3 -5 8 -10 11 -10 3 0 2 5 -1 10 -3 6 -8 10 -11 10 -3 0
-2 -4 1 -10z" />
    <path d="M995 2570 l-6 -10 15 6 c18 7 21 14 7 14 -6 0 -13 -4 -16 -10z" />
    <path d="M1000 2510 c6 -11 13 -20 16 -20 2 0 0 9 -6 20 -6 11 -13 20 -16 20
-2 0 0 -9 6 -20z" />
    <path d="M894 2508 l-7 -11 11 7 c12 7 16 16 8 16 -3 0 -8 -5 -12 -12z" />
    <path d="M1995 2509 c-4 -6 -5 -12 -2 -15 2 -3 7 2 10 11 7 17 1 20 -8 4z" />
    <path d="M864 2488 l-7 -11 11 7 c12 7 16 16 8 16 -3 0 -8 -5 -12 -12z" />
    <path d="M925 2490 c3 -5 8 -10 11 -10 3 0 2 5 -1 10 -3 6 -8 10 -11 10 -3 0
-2 -4 1 -10z" />
    <path d="M2064 2478 l-7 -11 11 7 c7 4 12 9 12 12 0 8 -9 4 -16 -8z" />
    <path d="M2165 2470 c3 -5 8 -10 11 -10 3 0 2 5 -1 10 -3 6 -8 10 -11 10 -3 0
-2 -4 1 -10z" />
    <path d="M2580 2466 c0 -2 8 -10 18 -17 l17 -14 -14 18 c-13 16 -21 21 -21 13z" />
    <path d="M1035 2450 c3 -5 8 -10 11 -10 3 0 2 5 -1 10 -3 6 -8 10 -11 10 -3 0
-2 -4 1 -10z" />
    <path d="M960 2430 c6 -11 13 -20 16 -20 2 0 0 9 -6 20 -6 11 -13 20 -16 20
-2 0 0 -9 6 -20z" />
    <path d="M1954 2438 l-7 -11 11 7 c12 7 16 16 8 16 -3 0 -8 -5 -12 -12z" />
    <path d="M384 2428 l-7 -11 11 7 c12 7 16 16 8 16 -3 0 -8 -5 -12 -12z" />
    <path d="M2215 2430 c3 -5 8 -10 11 -10 3 0 2 5 -1 10 -3 6 -8 10 -11 10 -3 0
-2 -4 1 -10z" />
    <path d="M769 2413 l-14 -18 18 14 c9 7 17 15 17 17 0 8 -8 3 -21 -13z" />
    <path d="M2635 2400 c3 -5 8 -10 11 -10 3 0 2 5 -1 10 -3 6 -8 10 -11 10 -3 0
-2 -4 1 -10z" />
    <path d="M344 2378 l-7 -11 11 7 c12 7 16 16 8 16 -3 0 -8 -5 -12 -12z" />
    <path d="M1075 2380 c3 -5 8 -10 11 -10 3 0 2 5 -1 10 -3 6 -8 10 -11 10 -3 0
-2 -4 1 -10z" />
    <path d="M995 2370 c3 -5 8 -10 11 -10 3 0 2 5 -1 10 -3 6 -8 10 -11 10 -3 0
-2 -4 1 -10z" />
    <path d="M1914 2368 l-7 -11 11 7 c12 7 16 16 8 16 -3 0 -8 -5 -12 -12z" />
    <path d="M1994 2358 l-7 -11 11 7 c12 7 16 16 8 16 -3 0 -8 -5 -12 -12z" />
    <path d="M2665 2360 c3 -5 8 -10 11 -10 3 0 2 5 -1 10 -3 6 -8 10 -11 10 -3 0
-2 -4 1 -10z" />
    <path d="M296 2310 c-14 -22 -26 -43 -26 -47 0 -4 6 1 13 12 33 48 49 75 44
75 -2 0 -16 -18 -31 -40z" />
    <path d="M1103 2325 c0 -8 4 -12 9 -9 5 3 6 10 3 15 -9 13 -12 11 -12 -6z" />
    <path d="M1890 2320 c0 -7 3 -10 7 -7 3 4 3 10 0 14 -4 3 -7 0 -7 -7z" />
    <path d="M659 2303 l-14 -18 18 14 c9 7 17 15 17 17 0 8 -8 3 -21 -13z" />
    <path d="M1030 2307 c0 -2 6 -10 14 -16 l14 -12 8 13 7 13 -8 -7 c-4 -4 -14
-3 -22 3 -7 6 -13 9 -13 6z" />
    <path d="M1940 2286 l10 -10 10 10 10 10 -20 0 -20 0 10 -10z" />
    <path d="M2355 2290 c3 -5 8 -10 11 -10 3 0 2 5 -1 10 -3 6 -8 10 -11 10 -3 0
-2 -4 1 -10z" />
    <path d="M614 2248 l-7 -11 11 7 c12 7 16 16 8 16 -3 0 -8 -5 -12 -12z" />
    <path d="M2395 2240 c3 -5 8 -10 11 -10 3 0 2 5 -1 10 -3 6 -8 10 -11 10 -3 0
-2 -4 1 -10z" />
    <path d="M2746 2237 c3 -10 9 -15 12 -12 3 3 0 11 -7 18 l-12 12 7 -18z" />
    <path d="M244 2228 l-7 -11 11 7 c12 7 16 16 8 16 -3 0 -8 -5 -12 -12z" />
    <path d="M584 2208 l-7 -11 11 7 c12 7 16 16 8 16 -3 0 -8 -5 -12 -12z" />
    <path d="M564 2178 l-7 -11 11 7 c12 7 16 16 8 16 -3 0 -8 -5 -12 -12z" />
    <path d="M2404 2138 l-7 -11 11 7 c12 7 16 16 8 16 -3 0 -8 -5 -12 -12z" />
    <path d="M2806 2127 c3 -10 9 -15 12 -12 3 3 0 11 -7 18 l-12 12 7 -18z" />
    <path d="M625 2120 c3 -5 8 -10 11 -10 3 0 2 5 -1 10 -3 6 -8 10 -11 10 -3 0
-2 -4 1 -10z" />
    <path d="M2334 2098 l-7 -11 11 7 c12 7 16 16 8 16 -3 0 -8 -5 -12 -12z" />
    <path d="M2496 2075 c24 -39 24 -40 24 -28 0 6 -9 21 -21 34 l-20 24 17 -30z" />
    <path d="M547 2079 c7 -7 15 -10 18 -7 3 3 -2 9 -12 12 l-18 7 12 -12z" />
    <path d="M695 2080 c3 -5 8 -10 11 -10 3 0 2 5 -1 10 -3 6 -8 10 -11 10 -3 0
-2 -4 1 -10z" />
    <path d="M2274 2064 l-19 -15 23 11 c12 6 22 13 22 15 0 8 -5 6 -26 -11z" />
    <path d="M2414 2058 l-7 -11 11 7 c7 4 12 9 12 12 0 8 -9 4 -16 -8z" />
    <path d="M617 2039 c7 -7 15 -10 18 -7 3 3 -2 9 -12 12 l-18 7 12 -12z" />
    <path d="M765 2040 c3 -5 8 -10 11 -10 3 0 2 5 -1 10 -3 6 -8 10 -11 10 -3 0
-2 -4 1 -10z" />
    <path d="M2214 2028 l-7 -11 11 7 c12 7 16 16 8 16 -3 0 -8 -5 -12 -12z" />
    <path d="M2360 2030 l-15 -10 12 0 c6 0 15 5 18 10 8 12 4 12 -15 0z" />
    <path d="M470 2000 c0 -7 3 -10 7 -7 3 4 3 10 0 14 -4 3 -7 0 -7 -7z" />
    <path d="M685 2000 c3 -5 8 -10 11 -10 3 0 2 5 -1 10 -3 6 -8 10 -11 10 -3 0
-2 -4 1 -10z" />
    <path d="M764 1988 l-7 -11 11 7 c12 7 16 16 8 16 -3 0 -8 -5 -12 -12z" />
    <path d="M2225 1990 c3 -5 8 -10 11 -10 3 0 2 5 -1 10 -3 6 -8 10 -11 10 -3 0
-2 -4 1 -10z" />
    <path d="M2294 1988 l-7 -11 11 7 c7 4 12 9 12 12 0 8 -9 4 -16 -8z" />
    <path d="M2540 1980 c0 -7 3 -10 7 -7 3 4 3 10 0 14 -4 3 -7 0 -7 -7z" />
    <path d="M737 1969 c7 -7 15 -10 18 -7 3 3 -2 9 -12 12 l-18 7 12 -12z" />
    <path d="M2550 1950 c0 -7 3 -10 7 -7 3 4 3 10 0 14 -4 3 -7 0 -7 -7z" />
    <path d="M2560 1920 c0 -7 3 -10 7 -7 3 4 3 10 0 14 -4 3 -7 0 -7 -7z" />
    <path d="M2570 1890 c0 -7 3 -10 7 -7 3 4 3 10 0 14 -4 3 -7 0 -7 -7z" />
    <path d="M430 1880 c0 -7 3 -10 7 -7 3 4 3 10 0 14 -4 3 -7 0 -7 -7z" />
    <path d="M2580 1850 c0 -7 3 -10 7 -7 3 4 3 10 0 14 -4 3 -7 0 -7 -7z" />
    <path d="M2590 1810 c0 -7 3 -10 7 -7 3 4 3 10 0 14 -4 3 -7 0 -7 -7z" />
    <path d="M410 1800 c0 -7 3 -10 7 -7 3 4 3 10 0 14 -4 3 -7 0 -7 -7z" />
    <path d="M2600 1750 c0 -7 3 -10 7 -7 3 4 3 10 0 14 -4 3 -7 0 -7 -7z" />
    <path d="M400 1740 c0 -7 3 -10 7 -7 3 4 3 10 0 14 -4 3 -7 0 -7 -7z" />
    <path d="M2612 1660 c0 -14 2 -19 5 -12 2 6 2 18 0 25 -3 6 -5 1 -5 -13z" />
    <path d="M392 1630 c0 -14 2 -19 5 -12 2 6 2 18 0 25 -3 6 -5 1 -5 -13z" />
    <path d="M768 1183 c39 -2 105 -2 145 0 39 1 7 3 -73 3 -80 0 -112 -2 -72 -3z" />
    <path d="M1348 1183 c23 -2 61 -2 85 0 23 2 4 4 -43 4 -47 0 -66 -2 -42 -4z" />
    <path d="M1797 1183 c-3 -5 30 -7 74 -5 l79 4 3 -339 2 -338 3 343 2 342 -79
0 c-44 0 -82 -3 -84 -7z" />
    <path d="M2123 1183 c15 -2 39 -2 55 0 15 2 2 4 -28 4 -30 0 -43 -2 -27 -4z" />
    <path d="M1023 1173 c4 -3 10 -3 14 0 3 4 0 7 -7 7 -7 0 -10 -3 -7 -7z" />
    <path d="M1471 1155 c0 -5 4 -19 9 -30 l9 -20 0 15 c0 8 -4 22 -9 30 -5 8 -9
11 -9 5z" />
    <path d="M1105 1140 c3 -5 8 -10 11 -10 3 0 2 5 -1 10 -3 6 -8 10 -11 10 -3 0
-2 -4 1 -10z" />
    <path d="M1490 1090 c0 -7 3 -10 7 -7 3 4 3 10 0 14 -4 3 -7 0 -7 -7z" />
    <path d="M993 1073 c4 -3 10 -3 14 0 3 4 0 7 -7 7 -7 0 -10 -3 -7 -7z" />
    <path d="M1500 1060 c0 -7 3 -10 7 -7 3 4 3 10 0 14 -4 3 -7 0 -7 -7z" />
    <path d="M1045 1050 c3 -5 8 -10 11 -10 3 0 2 5 -1 10 -3 6 -8 10 -11 10 -3 0
-2 -4 1 -10z" />
    <path d="M1170 1050 c0 -7 3 -10 7 -7 3 4 3 10 0 14 -4 3 -7 0 -7 -7z" />
    <path d="M1510 1030 c0 -7 3 -10 7 -7 3 4 3 10 0 14 -4 3 -7 0 -7 -7z" />
    <path d="M1520 1000 c0 -7 3 -10 7 -7 3 4 3 10 0 14 -4 3 -7 0 -7 -7z" />
    <path d="M1730 990 c0 -7 3 -10 7 -7 3 4 3 10 0 14 -4 3 -7 0 -7 -7z" />
    <path d="M1060 980 c0 -7 3 -10 7 -7 3 4 3 10 0 14 -4 3 -7 0 -7 -7z" />
    <path d="M1420 970 c0 -7 3 -10 7 -7 3 4 3 10 0 14 -4 3 -7 0 -7 -7z" />
    <path d="M1842 975 c-6 -23 0 -461 6 -467 4 -4 6 64 4 150 -3 204 -7 330 -10
317z" />
    <path d="M1170 960 c0 -7 3 -10 7 -7 3 4 3 10 0 14 -4 3 -7 0 -7 -7z" />
    <path d="M1720 960 c0 -7 3 -10 7 -7 3 4 3 10 0 14 -4 3 -7 0 -7 -7z" />
    <path d="M1710 930 c0 -7 3 -10 7 -7 3 4 3 10 0 14 -4 3 -7 0 -7 -7z" />
    <path d="M1820 930 c0 -7 3 -10 7 -7 3 4 3 10 0 14 -4 3 -7 0 -7 -7z" />
    <path d="M983 913 c4 -3 10 -3 14 0 3 4 0 7 -7 7 -7 0 -10 -3 -7 -7z" />
    <path d="M1700 900 c0 -7 3 -10 7 -7 3 4 3 10 0 14 -4 3 -7 0 -7 -7z" />
    <path d="M1810 900 c0 -7 3 -10 7 -7 3 4 3 10 0 14 -4 3 -7 0 -7 -7z" />
    <path d="M1110 870 c0 -7 3 -10 7 -7 3 4 3 10 0 14 -4 3 -7 0 -7 -7z" />
    <path d="M1690 870 c0 -7 3 -10 7 -7 3 4 3 10 0 14 -4 3 -7 0 -7 -7z" />
    <path d="M1800 870 c0 -7 3 -10 7 -7 3 4 3 10 0 14 -4 3 -7 0 -7 -7z" />
    <path d="M1135 850 c3 -5 8 -10 11 -10 3 0 2 5 -1 10 -3 6 -8 10 -11 10 -3 0
-2 -4 1 -10z" />
    <path d="M1680 840 c0 -7 3 -10 7 -7 3 4 3 10 0 14 -4 3 -7 0 -7 -7z" />
    <path d="M1790 840 c0 -7 3 -10 7 -7 3 4 3 10 0 14 -4 3 -7 0 -7 -7z" />
    <path d="M1670 810 c0 -7 3 -10 7 -7 3 4 3 10 0 14 -4 3 -7 0 -7 -7z" />
    <path d="M1780 810 c0 -7 3 -10 7 -7 3 4 3 10 0 14 -4 3 -7 0 -7 -7z" />
    <path d="M978 803 c7 -3 16 -2 19 1 4 3 -2 6 -13 5 l-19 -1 13 -5z" />
    <path d="M1590 780 c0 -7 3 -10 7 -7 3 4 3 10 0 14 -4 3 -7 0 -7 -7z" />
    <path d="M1660 780 c0 -7 3 -10 7 -7 3 4 3 10 0 14 -4 3 -7 0 -7 -7z" />
    <path d="M1770 780 c0 -7 3 -10 7 -7 3 4 3 10 0 14 -4 3 -7 0 -7 -7z" />
    <path d="M1200 760 c0 -7 3 -10 7 -7 3 4 3 10 0 14 -4 3 -7 0 -7 -7z" />
    <path d="M1490 760 c0 -7 3 -10 7 -7 3 4 3 10 0 14 -4 3 -7 0 -7 -7z" />
    <path d="M1600 750 c0 -7 3 -10 7 -7 3 4 3 10 0 14 -4 3 -7 0 -7 -7z" />
    <path d="M1650 750 c0 -7 3 -10 7 -7 3 4 3 10 0 14 -4 3 -7 0 -7 -7z" />
    <path d="M1760 750 c0 -7 3 -10 7 -7 3 4 3 10 0 14 -4 3 -7 0 -7 -7z" />
    <path d="M1092 710 c0 -14 2 -19 5 -12 2 6 2 18 0 25 -3 6 -5 1 -5 -13z" />
    <path d="M1610 720 c0 -7 3 -10 7 -7 3 4 3 10 0 14 -4 3 -7 0 -7 -7z" />
    <path d="M1640 720 c0 -7 3 -10 7 -7 3 4 3 10 0 14 -4 3 -7 0 -7 -7z" />
    <path d="M1620 690 c0 -5 5 -10 10 -10 6 0 10 5 10 10 0 6 -4 10 -10 10 -5 0
-10 -4 -10 -10z" />
    <path d="M1516 677 c3 -10 9 -15 12 -12 3 3 0 11 -7 18 l-12 12 7 -18z" />
    <path d="M1064 638 l-7 -11 11 7 c7 4 12 9 12 12 0 8 -9 4 -16 -8z" />
    <path d="M1200 640 c0 -7 3 -10 7 -7 3 4 3 10 0 14 -4 3 -7 0 -7 -7z" />
    <path d="M1530 640 c0 -7 3 -10 7 -7 3 4 3 10 0 14 -4 3 -7 0 -7 -7z" />
    <path d="M1541 610 c0 -8 4 -22 9 -30 12 -18 12 -2 0 25 l-9 20 0 -15z" />
    <path d="M853 603 c26 -2 67 -2 90 0 23 2 2 3 -48 3 -49 0 -68 -1 -42 -3z" />
    <path d="M1174 588 l-7 -11 11 7 c7 4 12 9 12 12 0 8 -9 4 -16 -8z" />
    <path d="M1134 548 l-7 -11 11 7 c7 4 12 9 12 12 0 8 -9 4 -16 -8z" />
    <path d="M1560 550 c0 -7 3 -10 7 -7 3 4 3 10 0 14 -4 3 -7 0 -7 -7z" />
    <path d="M1104 528 l-7 -11 11 7 c7 4 12 9 12 12 0 8 -9 4 -16 -8z" />
    <path d="M1570 520 c0 -7 3 -10 7 -7 3 4 3 10 0 14 -4 3 -7 0 -7 -7z" />
    <path d="M695 510 c3 -5 8 -10 11 -10 3 0 2 5 -1 10 -3 6 -8 10 -11 10 -3 0
-2 -4 1 -10z" />
    <path d="M1063 513 c4 -3 10 -3 14 0 3 4 0 7 -7 7 -7 0 -10 -3 -7 -7z" />
    <path d="M1404 508 l-7 -11 11 7 c12 7 16 16 8 16 -3 0 -8 -5 -12 -12z" />
    <path d="M2095 510 c3 -5 8 -10 11 -10 3 0 2 5 -1 10 -3 6 -8 10 -11 10 -3 0
-2 -4 1 -10z" />
    <path d="M2194 508 l-7 -11 11 7 c12 7 16 16 8 16 -3 0 -8 -5 -12 -12z" />
    <path d="M998 503 c7 -3 16 -2 19 1 4 3 -2 6 -13 5 l-19 -1 13 -5z" />
  </g>
  <g transform="translate(0.000000,300.000000) scale(0.100000,-0.100000)" fill="#5db0f3" stroke="none">
    <path d="M1438 2943 c12 -2 30 -2 40 0 9 3 -1 5 -23 4 l-40 0 23 -4z" />
    <path d="M1523 2943 c15 -2 37 -2 50 0 12 2 0 4 -28 4 -27 0 -38 -2 -22 -4z" />
    <path d="M1313 2933 c9 -2 23 -2 30 0 6 3 -1 5 -18 5 l-30 0 18 -5z" />
    <path d="M1668 2933 c6 -2 18 -2 25 0 6 3 1 5 -13 5 -14 0 -19 -2 -12 -5z" />
    <path d="M1248 2923 c7 -3 16 -2 19 1 4 3 -2 6 -13 5 l-19 -1 13 -5z" />
    <path d="M1743 2923 c4 -3 10 -3 14 0 3 4 0 7 -7 7 -7 0 -10 -3 -7 -7z" />
    <path d="M1193 2913 c4 -3 10 -3 14 0 3 4 0 7 -7 7 -7 0 -10 -3 -7 -7z" />
    <path d="M1153 2903 c4 -3 10 -3 14 0 3 4 0 7 -7 7 -7 0 -10 -3 -7 -7z" />
    <path d="M1843 2903 c4 -3 10 -3 14 0 3 4 0 7 -7 7 -7 0 -10 -3 -7 -7z" />
    <path d="M1113 2893 c4 -3 10 -3 14 0 3 4 0 7 -7 7 -7 0 -10 -3 -7 -7z" />
    <path d="M1883 2893 c4 -3 10 -3 14 0 3 4 0 7 -7 7 -7 0 -10 -3 -7 -7z" />
    <path d="M1913 2883 c4 -3 10 -3 14 0 3 4 0 7 -7 7 -7 0 -10 -3 -7 -7z" />
    <path d="M963 2843 c4 -3 10 -3 14 0 3 4 0 7 -7 7 -7 0 -10 -3 -7 -7z" />
    <path d="M2053 2833 c4 -3 10 -3 14 0 3 4 0 7 -7 7 -7 0 -10 -3 -7 -7z" />
    <path d="M804 2768 l-7 -11 11 7 c7 4 12 9 12 12 0 8 -9 4 -16 -8z" />
    <path d="M2245 2740 c3 -5 8 -10 11 -10 3 0 2 5 -1 10 -3 6 -8 10 -11 10 -3 0
-2 -4 1 -10z" />
    <path d="M704 2708 l-7 -11 11 7 c7 4 12 9 12 12 0 8 -9 4 -16 -8z" />
    <path d="M674 2688 l-7 -11 11 7 c12 7 16 16 8 16 -3 0 -8 -5 -12 -12z" />
    <path d="M1368 2683 c7 -3 16 -2 19 1 4 3 -2 6 -13 5 l-19 -1 13 -5z" />
    <path d="M1628 2683 c7 -3 16 -2 19 1 4 3 -2 6 -13 5 l-19 -1 13 -5z" />
    <path d="M2335 2680 c3 -5 8 -10 11 -10 3 0 2 5 -1 10 -3 6 -8 10 -11 10 -3 0
-2 -4 1 -10z" />
    <path d="M644 2668 l-7 -11 11 7 c12 7 16 16 8 16 -3 0 -8 -5 -12 -12z" />
    <path d="M1308 2673 c7 -3 16 -2 19 1 4 3 -2 6 -13 5 l-19 -1 13 -5z" />
    <path d="M1688 2673 c7 -3 16 -2 19 1 4 3 -2 6 -13 5 l-19 -1 13 -5z" />
    <path d="M1783 2653 c4 -3 10 -3 14 0 3 4 0 7 -7 7 -7 0 -10 -3 -7 -7z" />
    <path d="M2375 2650 c3 -5 8 -10 11 -10 3 0 2 5 -1 10 -3 6 -8 10 -11 10 -3 0
-2 -4 1 -10z" />
    <path d="M599 2633 l-14 -18 18 14 c9 7 17 15 17 17 0 8 -8 3 -21 -13z" />
    <path d="M1183 2643 c4 -3 10 -3 14 0 3 4 0 7 -7 7 -7 0 -10 -3 -7 -7z" />
    <path d="M2410 2626 c0 -2 8 -10 18 -17 l17 -14 -14 18 c-13 16 -21 21 -21 13z" />
    <path d="M1093 2613 c4 -3 10 -3 14 0 3 4 0 7 -7 7 -7 0 -10 -3 -7 -7z" />
    <path d="M534 2578 l-19 -23 23 19 c21 18 27 26 19 26 -2 0 -12 -10 -23 -22z" />
    <path d="M2520 2525 c19 -19 36 -35 39 -35 3 0 -10 16 -29 35 -19 19 -36 35
-39 35 -3 0 10 -16 29 -35z" />
    <path d="M2125 2500 c3 -5 8 -10 11 -10 3 0 2 5 -1 10 -3 6 -8 10 -11 10 -3 0
-2 -4 1 -10z" />
    <path d="M1984 2488 l-7 -11 11 7 c12 7 16 16 8 16 -3 0 -8 -5 -12 -12z" />
    <path d="M414 2458 l-19 -23 23 19 c12 11 22 21 22 23 0 8 -8 2 -26 -19z" />
    <path d="M834 2468 l-7 -11 11 7 c12 7 16 16 8 16 -3 0 -8 -5 -12 -12z" />
    <path d="M789 2433 l-14 -18 18 14 c9 7 17 15 17 17 0 8 -8 3 -21 -13z" />
    <path d="M2205 2440 c3 -5 8 -10 11 -10 3 0 2 5 -1 10 -3 6 -8 10 -11 10 -3 0
-2 -4 1 -10z" />
    <path d="M2610 2426 c0 -2 8 -10 18 -17 l17 -14 -14 18 c-13 16 -21 21 -21 13z" />
    <path d="M1523 2413 c4 -3 10 -3 14 0 3 4 0 7 -7 7 -7 0 -10 -3 -7 -7z" />
    <path d="M359 2393 l-14 -18 18 14 c9 7 17 15 17 17 0 8 -8 3 -21 -13z" />
    <path d="M2290 2365 c13 -14 26 -25 28 -25 3 0 -5 11 -18 25 -13 14 -26 25
-28 25 -3 0 5 -11 18 -25z" />
    <path d="M2655 2370 c3 -5 8 -10 11 -10 3 0 2 5 -1 10 -3 6 -8 10 -11 10 -3 0
-2 -4 1 -10z" />
    <path d="M324 2348 l-7 -11 11 7 c12 7 16 16 8 16 -3 0 -8 -5 -12 -12z" />
    <path d="M2685 2330 c3 -5 8 -10 11 -10 3 0 2 5 -1 10 -3 6 -8 10 -11 10 -3 0
-2 -4 1 -10z" />
    <path d="M304 2318 l-7 -11 11 7 c7 4 12 9 12 12 0 8 -9 4 -16 -8z" />
    <path d="M2705 2300 c3 -5 8 -10 11 -10 3 0 2 5 -1 10 -3 6 -8 10 -11 10 -3 0
-2 -4 1 -10z" />
    <path d="M284 2288 l-7 -11 11 7 c12 7 16 16 8 16 -3 0 -8 -5 -12 -12z" />
    <path d="M639 2283 l-14 -18 18 14 c9 7 17 15 17 17 0 8 -8 3 -21 -13z" />
    <path d="M2365 2280 c3 -5 8 -10 11 -10 3 0 2 5 -1 10 -3 6 -8 10 -11 10 -3 0
-2 -4 1 -10z" />
    <path d="M2725 2270 c3 -5 8 -10 11 -10 3 0 2 5 -1 10 -3 6 -8 10 -11 10 -3 0
-2 -4 1 -10z" />
    <path d="M264 2258 l-7 -11 11 7 c12 7 16 16 8 16 -3 0 -8 -5 -12 -12z" />
    <path d="M604 2238 l-7 -11 11 7 c12 7 16 16 8 16 -3 0 -8 -5 -12 -12z" />
    <path d="M2755 2220 c3 -5 8 -10 11 -10 3 0 2 5 -1 10 -3 6 -8 10 -11 10 -3 0
-2 -4 1 -10z" />
    <path d="M2425 2200 c3 -5 8 -10 11 -10 3 0 2 5 -1 10 -3 6 -8 10 -11 10 -3 0
-2 -4 1 -10z" />
    <path d="M514 2088 l-7 -11 11 7 c12 7 16 16 8 16 -3 0 -8 -5 -12 -12z" />
    <path d="M565 2070 c3 -5 8 -10 11 -10 3 0 2 5 -1 10 -3 6 -8 10 -11 10 -3 0
-2 -4 1 -10z" />
    <path d="M160 2060 c0 -7 3 -10 7 -7 3 4 3 10 0 14 -4 3 -7 0 -7 -7z" />
    <path d="M2840 2050 c0 -7 3 -10 7 -7 3 4 3 10 0 14 -4 3 -7 0 -7 -7z" />
    <path d="M635 2030 c3 -5 8 -10 11 -10 3 0 2 5 -1 10 -3 6 -8 10 -11 10 -3 0
-2 -4 1 -10z" />
    <path d="M2210 2020 c0 -7 3 -10 7 -7 3 4 3 10 0 14 -4 3 -7 0 -7 -7z" />
    <path d="M2344 2018 l-7 -11 11 7 c12 7 16 16 8 16 -3 0 -8 -5 -12 -12z" />
    <path d="M140 2010 c0 -7 3 -10 7 -7 3 4 3 10 0 14 -4 3 -7 0 -7 -7z" />
    <path d="M2860 2000 c0 -7 3 -10 7 -7 3 4 3 10 0 14 -4 3 -7 0 -7 -7z" />
    <path d="M130 1980 c0 -7 3 -10 7 -7 3 4 3 10 0 14 -4 3 -7 0 -7 -7z" />
    <path d="M2871 1975 c0 -5 4 -19 9 -30 l9 -20 0 15 c0 8 -4 22 -9 30 -5 8 -9
11 -9 5z" />
    <path d="M2243 1963 c4 -3 10 -3 14 0 3 4 0 7 -7 7 -7 0 -10 -3 -7 -7z" />
    <path d="M116 1943 l-7 -18 12 12 c7 7 10 15 7 18 -3 3 -9 -2 -12 -12z" />
    <path d="M450 1950 c0 -7 3 -10 7 -7 3 4 3 10 0 14 -4 3 -7 0 -7 -7z" />
    <path d="M440 1920 c0 -7 3 -10 7 -7 3 4 3 10 0 14 -4 3 -7 0 -7 -7z" />
    <path d="M2890 1910 c0 -7 3 -10 7 -7 3 4 3 10 0 14 -4 3 -7 0 -7 -7z" />
    <path d="M100 1890 c0 -7 3 -10 7 -7 3 4 3 10 0 14 -4 3 -7 0 -7 -7z" />
    <path d="M2900 1871 c0 -6 4 -13 10 -16 l10 -6 -6 15 c-7 18 -14 21 -14 7z" />
    <path d="M2580 1860 c0 -7 3 -10 7 -7 3 4 3 10 0 14 -4 3 -7 0 -7 -7z" />
    <path d="M86 1843 l-7 -18 12 12 c7 7 10 15 7 18 -3 3 -9 -2 -12 -12z" />
    <path d="M420 1850 c0 -7 3 -10 7 -7 3 4 3 10 0 14 -4 3 -7 0 -7 -7z" />
    <path d="M410 1810 c0 -7 3 -10 7 -7 3 4 3 10 0 14 -4 3 -7 0 -7 -7z" />
    <path d="M2601 1764 l1 -19 5 13 c3 7 2 16 -1 19 -3 4 -6 -2 -5 -13z" />
    <path d="M400 1750 c0 -7 3 -10 7 -7 3 4 3 10 0 14 -4 3 -7 0 -7 -7z" />
    <path d="M2612 1700 c0 -14 2 -19 5 -12 2 6 2 18 0 25 -3 6 -5 1 -5 -13z" />
    <path d="M392 1680 c0 -14 2 -19 5 -12 2 6 2 18 0 25 -3 6 -5 1 -5 -13z" />
    <path d="M988 1183 c7 -3 16 -2 19 1 4 3 -2 6 -13 5 l-19 -1 13 -5z" />
    <path d="M1307 1183 c-10 -9 -9 -671 1 -676 4 -3 7 150 7 339 0 189 0 344 -1
344 0 0 -4 -3 -7 -7z" />
    <path d="M1033 1173 c4 -3 10 -3 14 0 3 4 0 7 -7 7 -7 0 -10 -3 -7 -7z" />
    <path d="M1780 1150 c0 -7 3 -10 7 -7 3 4 3 10 0 14 -4 3 -7 0 -7 -7z" />
    <path d="M1480 1130 c0 -7 3 -10 7 -7 3 4 3 10 0 14 -4 3 -7 0 -7 -7z" />
    <path d="M1770 1120 c0 -7 3 -10 7 -7 3 4 3 10 0 14 -4 3 -7 0 -7 -7z" />
    <path d="M978 1073 c7 -3 16 -2 19 1 4 3 -2 6 -13 5 l-19 -1 13 -5z" />
    <path d="M1750 1060 c0 -7 3 -10 7 -7 3 4 3 10 0 14 -4 3 -7 0 -7 -7z" />
    <path d="M1740 1030 c0 -7 3 -10 7 -7 3 4 3 10 0 14 -4 3 -7 0 -7 -7z" />
    <path d="M1181 1004 l1 -19 5 13 c3 7 2 16 -1 19 -3 4 -6 -2 -5 -13z" />
    <path d="M1530 970 c0 -7 3 -10 7 -7 3 4 3 10 0 14 -4 3 -7 0 -7 -7z" />
    <path d="M1540 940 c0 -7 3 -10 7 -7 3 4 3 10 0 14 -4 3 -7 0 -7 -7z" />
    <path d="M863 913 c26 -2 67 -2 90 0 23 2 2 3 -48 3 -49 0 -68 -1 -42 -3z" />
    <path d="M1550 910 c0 -7 3 -10 7 -7 3 4 3 10 0 14 -4 3 -7 0 -7 -7z" />
    <path d="M1440 900 c0 -7 3 -10 7 -7 3 4 3 10 0 14 -4 3 -7 0 -7 -7z" />
    <path d="M1560 880 c0 -7 3 -10 7 -7 3 4 3 10 0 14 -4 3 -7 0 -7 -7z" />
    <path d="M1580 820 c0 -7 3 -10 7 -7 3 4 3 10 0 14 -4 3 -7 0 -7 -7z" />
    <path d="M1470 810 c0 -7 3 -10 7 -7 3 4 3 10 0 14 -4 3 -7 0 -7 -7z" />
    <path d="M813 803 c4 -3 10 -3 14 0 3 4 0 7 -7 7 -7 0 -10 -3 -7 -7z" />
    <path d="M1023 793 c4 -3 10 -3 14 0 3 4 0 7 -7 7 -7 0 -10 -3 -7 -7z" />
    <path d="M1213 705 l0 -40 4 23 c2 12 2 30 0 40 -3 9 -5 -1 -4 -23z" />
    <path d="M1750 720 c0 -7 3 -10 7 -7 3 4 3 10 0 14 -4 3 -7 0 -7 -7z" />
    <path d="M1510 690 c0 -7 3 -10 7 -7 3 4 3 10 0 14 -4 3 -7 0 -7 -7z" />
    <path d="M1625 690 c3 -5 8 -10 11 -10 2 0 4 5 4 10 0 6 -5 10 -11 10 -5 0 -7
-4 -4 -10z" />
    <path d="M1730 660 c0 -7 3 -10 7 -7 3 4 3 10 0 14 -4 3 -7 0 -7 -7z" />
    <path d="M1720 630 c0 -7 3 -10 7 -7 3 4 3 10 0 14 -4 3 -7 0 -7 -7z" />
    <path d="M1013 613 c4 -3 10 -3 14 0 3 4 0 7 -7 7 -7 0 -10 -3 -7 -7z" />
    <path d="M1540 600 c0 -7 3 -10 7 -7 3 4 3 10 0 14 -4 3 -7 0 -7 -7z" />
    <path d="M1700 570 c0 -7 3 -10 7 -7 3 4 3 10 0 14 -4 3 -7 0 -7 -7z" />
    <path d="M1690 540 c0 -7 3 -10 7 -7 3 4 3 10 0 14 -4 3 -7 0 -7 -7z" />
    <path d="M1093 523 c4 -3 10 -3 14 0 3 4 0 7 -7 7 -7 0 -10 -3 -7 -7z" />
    <path d="M1018 503 c7 -3 16 -2 19 1 4 3 -2 6 -13 5 l-19 -1 13 -5z" />
  </g>
  <g transform="translate(0.000000,300.000000) scale(0.100000,-0.100000)" fill="#323233" stroke="none">
    <path d="M1690 2017 c0 -13 40 -37 60 -37 20 0 9 20 -20 35 -36 18 -40 19 -40
2z" />
    <path d="M1795 1959 c-4 -6 -5 -11 -4 -13 24 -17 83 -46 95 -46 26 0 14 18
-30 44 -25 14 -47 26 -50 26 -3 0 -8 -5 -11 -11z" />
    <path d="M1340 1395 c0 -8 7 -15 15 -15 l14 0 -5 15 c-4 8 -10 15 -15 15 -5 0
-9 -7 -9 -15z" />
    <path d="M1620 1375 c-7 -9 -10 -18 -7 -21 10 -11 37 5 37 21 0 19 -14 19 -30
0z" />
    <path d="M1390 1346 c0 -8 14 -19 31 -25 40 -14 49 -14 49 0 l0 11 -15 -6 c-8
-3 -15 -2 -15 3 0 4 -11 13 -25 19 l-25 12 0 -14z" />
    <path d="M1530 1320 c0 -5 7 -10 16 -10 l15 0 -6 10 c-3 6 -10 10 -16 10 -5 0
-9 -4 -9 -10z" />
    <path d="M50 1275 c0 -8 5 -15 10 -15 6 0 10 7 10 15 0 8 -4 15 -10 15 -5 0
-10 -7 -10 -15z" />
    <path d="M2927 1240 l-5 -20 14 0 14 0 0 20 c0 11 -4 20 -9 20 -5 0 -11 -9
-14 -20z" />
    <path d="M60 1215 c0 -8 7 -15 15 -15 l14 0 -5 15 c-4 8 -10 15 -15 15 -5 0
-9 -7 -9 -15z" />
    <path d="M2910 1158 c-6 -24 -20 -69 -30 -102 -11 -32 -17 -63 -14 -67 3 -5 0
-9 -6 -9 l-12 0 6 -16 6 -15 -10 6 -10 6 -1 -18 c-1 -10 -1 -21 0 -25 0 -5 -4
-8 -10 -8 l-11 0 6 -16 c3 -8 2 -13 -2 -10 -5 3 -21 -20 -35 -50 -15 -31 -23
-53 -17 -49 l10 6 -6 -15 c-3 -9 -10 -13 -15 -10 -5 3 -6 -1 -3 -9 3 -8 0 -18
-7 -23 l-12 -7 8 13 8 13 -11 -7 -11 -7 6 -16 6 -16 -11 7 -12 7 6 -14 c3 -8
0 -18 -7 -23 l-12 -7 8 14 8 14 -9 -8 c-5 -5 -9 -16 -9 -25 0 -9 -5 -16 -11
-15 -7 1 -11 -5 -10 -15 l1 -17 -15 0 c-8 -1 -14 -7 -12 -14 3 -17 -18 -42
-29 -35 -5 3 -6 -1 -3 -9 l5 -14 -93 -94 c-51 -52 -127 -120 -168 -150 -168
-125 -369 -217 -570 -260 l-105 -23 -190 0 -190 -1 -104 23 c-199 45 -361 114
-526 225 l-90 61 -118 118 -118 118 3 17 3 18 -15 0 -15 0 1 17 c1 10 -3 16
-10 15 -6 -1 -11 6 -11 15 0 9 -4 20 -9 25 l-9 8 8 -14 8 -14 -12 7 c-7 5 -10
14 -7 22 3 7 0 16 -6 20 l-11 7 8 -13 8 -13 -12 7 c-7 5 -10 15 -7 23 l6 14
-12 -7 -11 -7 6 16 6 16 -11 7 -11 7 8 -13 8 -13 -12 7 c-7 5 -10 15 -7 23 3
8 2 12 -3 9 -5 -3 -12 1 -15 10 l-6 15 10 -6 c6 -4 -2 18 -17 49 -14 30 -30
53 -35 50 -4 -3 -5 2 -2 10 l6 16 -11 0 -10 0 6 17 6 16 -13 -8 -13 -8 6 10
c4 6 -2 37 -14 69 -11 33 -26 81 -33 109 -7 27 -18 51 -25 53 l-12 4 7 -38
c13 -74 66 -229 109 -319 24 -49 71 -132 105 -183 76 -114 225 -272 339 -357
46 -35 132 -88 190 -119 226 -117 427 -166 688 -166 l131 0 115 20 c151 25
280 68 411 134 248 126 449 313 591 551 30 50 70 126 89 170 34 79 78 218 91
289 l7 36 -11 0 c-5 0 -15 -19 -21 -42z" />
  </g>
  <g transform="translate(0.000000,300.000000) scale(0.100000,-0.100000)" fill="#b3b4b4" stroke="none">
    <path d="M1912 2150 c-1 -8 -5 -33 -8 -55 l-7 -40 12 11 12 11 -4 44 c-2 24
-4 37 -5 29z" />
    <path d="M1670 2031 l0 -22 30 -17 c16 -9 30 -24 30 -32 l1 -15 11 19 11 20
-14 5 c-8 2 -26 18 -41 34 l-28 29 0 -21z" />
    <path d="M2880 1950 c0 -7 3 -10 7 -7 3 4 3 10 0 14 -4 3 -7 0 -7 -7z" />
    <path d="M110 1930 c0 -7 3 -10 7 -7 3 4 3 10 0 14 -4 3 -7 0 -7 -7z" />
    <path d="M1706 1790 c-47 -82 -86 -155 -86 -162 l1 -13 14 18 c7 11 48 79 90
153 43 74 82 134 89 134 6 -1 22 -7 36 -15 14 -8 33 -14 43 -15 l17 0 0 16 0
15 -18 -5 -18 -6 -20 15 c-10 8 -29 15 -41 15 l-21 0 -86 -150z" />
    <path d="M2900 1880 c0 -7 3 -10 7 -7 3 4 3 10 0 14 -4 3 -7 0 -7 -7z" />
    <path d="M90 1860 c0 -7 3 -10 7 -7 3 4 3 10 0 14 -4 3 -7 0 -7 -7z" />
    <path d="M2910 1844 c0 -10 5 -26 10 -34 l11 -15 -7 30 c-8 37 -14 45 -14 19z" />
    <path d="M81 1824 l1 -19 5 13 c3 7 2 16 -1 19 -3 4 -6 -2 -5 -13z" />
    <path d="M70 1780 c0 -7 3 -10 7 -7 3 4 3 10 0 14 -4 3 -7 0 -7 -7z" />
    <path d="M2926 1767 c3 -10 9 -15 12 -12 3 3 0 11 -7 18 l-12 12 7 -18z" />
    <path d="M67 1743 c-4 -3 -7 -13 -7 -22 l1 -16 10 18 c11 19 8 33 -4 20z" />
    <path d="M2930 1716 c0 -9 5 -16 10 -16 6 0 10 4 10 9 0 6 -4 13 -10 16 l-10
6 0 -15z" />
    <path d="M55 1687 c-4 -10 -5 -21 -1 -24 10 -10 18 4 13 24 l-4 18 -8 -18z" />
    <path d="M2940 1658 c0 -7 5 -20 10 -28 l10 -15 0 22 c0 12 -4 25 -10 28 -5 3
-10 0 -10 -7z" />
    <path d="M47 1623 c-11 -10 -8 -63 3 -63 6 0 10 16 10 35 0 36 -2 40 -13 28z" />
    <path d="M2950 1455 l0 -126 10 6 10 6 0 114 0 114 -10 6 -10 6 0 -126z" />
    <path d="M40 1321 c0 -17 5 -33 10 -36 l10 -6 0 35 c0 20 -4 36 -10 36 -5 0
-10 -13 -10 -29z" />
    <path d="M2940 1264 l0 -25 10 6 c6 3 10 15 10 26 0 10 -4 19 -10 19 -5 0 -10
-12 -10 -26z" />
    <path d="M50 1246 c0 -14 5 -28 10 -31 l10 -6 0 30 c0 17 -4 31 -10 31 -5 0
-10 -11 -10 -24z" />
    <path d="M2930 1204 l0 -25 10 6 c6 3 10 15 10 26 0 10 -4 19 -10 19 -5 0 -10
-12 -10 -26z" />
    <path d="M60 1186 c0 -8 5 -18 10 -21 l10 -6 0 20 c0 12 -4 21 -10 21 -5 0
-10 -6 -10 -14z" />
    <path d="M2915 1133 c-13 -70 -57 -198 -101 -292 -24 -52 -74 -140 -111 -195
l-67 -101 -115 -115 -116 -116 -90 -61 c-49 -33 -128 -79 -173 -102 -98 -49
-258 -105 -354 -123 -38 -7 -68 -16 -68 -20 0 -13 30 -9 135 17 128 31 237 73
351 136 257 142 476 372 608 639 48 96 76 171 106 280 23 85 23 90 11 90 -5 0
-12 -17 -16 -37z" />
    <path d="M75 1118 c17 -78 69 -220 115 -313 141 -289 365 -519 647 -663 113
-57 214 -95 328 -123 86 -20 125 -24 125 -11 0 4 -31 13 -68 20 -91 15 -228
61 -332 110 -104 50 -225 127 -302 193 -31 27 -60 49 -65 50 -13 0 -159 176
-219 264 -30 44 -77 125 -104 180 -45 93 -110 276 -110 310 0 8 -5 15 -11 15
l-11 0 7 -32z" />
  </g>
  <g transform="translate(0.000000,300.000000) scale(0.100000,-0.100000)" fill="#585858" stroke="none">
    <path d="M1677 2034 c-13 -13 -7 -20 32 -42 l40 -22 6 11 c4 6 2 16 -5 22
l-13 12 7 -12 7 -13 -15 6 c-9 3 -13 10 -10 15 l5 9 -16 -6 -16 -6 3 12 c3 14
-15 24 -25 14z" />
    <path d="M1702 1796 c-51 -87 -90 -162 -86 -165 8 -9 24 15 109 166 42 73 80
133 85 133 5 0 24 -9 42 -20 39 -24 48 -25 48 -5 l0 14 -15 -6 -16 -5 3 13 3
14 -19 -3 -18 -3 7 10 6 11 -17 -7 -17 -6 6 9 c3 5 -2 10 -12 10 l-17 0 -92
-160z" />
    <path d="M1310 1470 c0 -11 5 -20 10 -20 6 0 10 9 10 20 0 11 -4 20 -10 20 -5
0 -10 -9 -10 -20z" />
    <path d="M1670 1455 c0 -8 5 -15 10 -15 6 0 10 7 10 15 0 8 -4 15 -10 15 -5 0
-10 -7 -10 -15z" />
    <path d="M2948 1390 c-3 -16 -1 -30 4 -30 4 0 8 14 8 30 0 17 -2 30 -4 30 -2
0 -6 -13 -8 -30z" />
    <path d="M43 1354 c6 -38 13 -51 23 -42 9 9 -7 78 -18 78 l-11 0 6 -36z" />
    <path d="M2935 1299 c-8 -34 1 -51 15 -29 12 19 13 60 1 60 -5 0 -12 -14 -16
-31z" />
    <path d="M54 1268 c7 -35 13 -44 22 -35 4 3 3 14 -1 24 -5 10 -7 24 -6 31 1 6
-3 12 -10 12 l-11 0 6 -32z" />
    <path d="M2933 1233 c-15 -5 -18 -33 -4 -33 8 0 25 30 19 35 -2 1 -9 0 -15 -2z" />
    <path d="M66 1182 c11 -63 54 -203 85 -282 40 -98 97 -201 165 -296 81 -113
148 -187 239 -263 196 -167 413 -274 653 -322 l94 -19 166 2 167 1 -160 7
c-206 9 -299 26 -470 87 -106 37 -272 127 -366 198 -98 74 -245 223 -311 315
-25 36 -69 106 -97 155 l-52 90 5 18 4 17 -11 -7 -10 -6 6 17 7 17 -9 -6 c-12
-7 -24 31 -15 46 l7 12 -13 -8 -12 -8 7 23 7 23 -12 -8 -12 -8 7 23 7 23 -12
-8 -12 -8 7 23 7 23 -12 -8 -12 -8 7 23 7 23 -12 -8 -13 -8 7 27 7 28 -12 -7
-11 -8 7 33 7 33 -9 -6 -10 -6 4 23 5 23 -17 6 -16 7 7 -38z" />
    <path d="M2915 1152 l6 -24 -12 8 -12 7 7 -27 7 -28 -11 7 -11 7 7 -28 7 -27
-13 8 -12 8 7 -23 7 -23 -10 7 -10 6 6 -22 5 -21 -10 6 -11 7 6 -22 5 -21 -10
6 -11 7 6 -22 5 -21 -13 8 -13 8 6 -11 c9 -14 -3 -43 -14 -36 l-9 5 6 -15 6
-16 -42 -77 c-153 -284 -360 -489 -637 -629 -127 -65 -261 -109 -400 -132 -56
-10 -105 -21 -109 -25 -13 -13 57 -7 156 13 263 54 504 180 702 369 103 98
167 176 242 294 82 131 148 294 189 468 l7 26 -16 0 -15 0 6 -25z" />
  </g>
  <g transform="translate(0.000000,300.000000) scale(0.100000,-0.100000)" fill="#939494" stroke="none">
    <path d="M1675 2029 c-4 -6 -5 -12 -4 -13 26 -19 56 -36 64 -36 5 0 -5 10 -22
21 -18 12 -30 25 -27 30 3 5 3 9 0 9 -3 0 -8 -5 -11 -11z" />
    <path d="M1830 1926 c0 -3 14 -13 31 -22 l32 -16 8 14 c13 21 10 35 -4 17
l-13 -17 -27 14 c-15 8 -27 12 -27 10z" />
    <path d="M1775 1910 c3 -5 1 -10 -5 -10 -6 0 -8 -5 -5 -10 3 -6 -1 -13 -9 -16
-9 -3 -13 -10 -10 -15 3 -5 0 -9 -6 -9 -6 0 -8 -4 -5 -10 3 -5 1 -10 -5 -10
-6 0 -8 -5 -5 -10 3 -6 -1 -13 -9 -16 -9 -3 -13 -10 -10 -15 3 -5 0 -9 -6 -9
-6 0 -9 -4 -6 -9 3 -5 -1 -12 -10 -15 -8 -3 -12 -10 -9 -16 3 -5 1 -10 -5 -10
-6 0 -8 -4 -5 -10 3 -5 1 -10 -5 -10 -6 0 -8 -5 -5 -10 3 -6 -1 -13 -9 -16 -9
-3 -13 -10 -10 -15 3 -5 1 -9 -4 -9 -5 0 -9 -7 -9 -15 0 -9 4 -12 8 -8 10 10
159 271 159 278 0 3 -5 5 -11 5 -5 0 -7 -4 -4 -10z" />
    <path d="M2920 1800 c0 -7 3 -10 7 -7 3 4 3 10 0 14 -4 3 -7 0 -7 -7z" />
    <path d="M70 1770 c0 -7 3 -10 7 -7 3 4 3 10 0 14 -4 3 -7 0 -7 -7z" />
    <path d="M2931 1744 l1 -19 5 13 c3 7 2 16 -1 19 -3 4 -6 -2 -5 -13z" />
    <path d="M60 1710 c0 -7 3 -10 7 -7 3 4 3 10 0 14 -4 3 -7 0 -7 -7z" />
    <path d="M2931 1713 c0 -4 4 -17 9 -28 l9 -20 0 22 c1 12 -3 25 -9 28 -5 3
-10 3 -9 -2z" />
    <path d="M57 1674 c-4 -4 -7 -19 -6 -33 l0 -26 10 24 c10 26 8 47 -4 35z" />
    <path d="M2951 1614 l1 -19 5 13 c3 7 2 16 -1 19 -3 4 -6 -2 -5 -13z" />
    <path d="M48 1574 c-5 -4 -8 -28 -7 -53 l1 -46 9 40 c10 43 9 71 -3 59z" />
    <path d="M41 1388 l1 -53 8 25 c12 36 12 80 0 80 l-10 0 1 -52z" />
    <path d="M2948 1305 c2 -14 6 -25 8 -25 2 0 4 11 4 25 0 14 -4 25 -9 25 -4 0
-6 -11 -3 -25z" />
    <path d="M50 1280 c0 -11 2 -20 4 -20 2 0 6 9 9 20 3 11 1 20 -4 20 -5 0 -9
-9 -9 -20z" />
    <path d="M2941 1234 l1 -19 5 13 c3 7 2 16 -1 19 -3 4 -6 -2 -5 -13z" />
    <path d="M60 1210 c0 -11 2 -20 4 -20 2 0 6 9 9 20 3 11 1 20 -4 20 -5 0 -9
-9 -9 -20z" />
    <path d="M2931 1174 l1 -19 5 13 c3 7 2 16 -1 19 -3 4 -6 -2 -5 -13z" />
    <path d="M71 1154 l1 -19 5 13 c3 7 2 16 -1 19 -3 4 -6 -2 -5 -13z" />
    <path d="M2920 1130 c0 -7 3 -10 7 -7 3 4 3 10 0 14 -4 3 -7 0 -7 -7z" />
    <path d="M81 1114 l1 -19 5 13 c3 7 2 16 -1 19 -3 4 -6 -2 -5 -13z" />
    <path d="M2910 1090 c0 -7 3 -10 7 -7 3 4 3 10 0 14 -4 3 -7 0 -7 -7z" />
    <path d="M91 1080 c0 -8 4 -24 9 -35 l9 -20 0 15 c0 8 -4 24 -9 35 l-9 20 0
-15z" />
    <path d="M2896 1044 c-4 -14 -5 -28 -3 -31 3 -2 8 8 11 23 4 14 5 28 3 31 -3
2 -8 -8 -11 -23z" />
    <path d="M110 1010 c0 -7 3 -10 7 -7 3 4 3 10 0 14 -4 3 -7 0 -7 -7z" />
    <path d="M2862 943 c-12 -31 -20 -59 -18 -61 2 -2 14 22 25 54 12 31 20 58 18
61 -2 2 -14 -22 -25 -54z" />
    <path d="M120 980 c0 -7 3 -10 7 -7 3 4 3 10 0 14 -4 3 -7 0 -7 -7z" />
    <path d="M131 958 c-1 -12 31 -89 35 -85 3 2 -4 24 -15 48 -11 24 -20 41 -20
37z" />
    <path d="M2796 795 c-51 -99 -99 -173 -180 -275 l-67 -85 51 55 c28 30 79 95
112 144 57 86 133 224 126 231 -2 2 -21 -30 -42 -70z" />
    <path d="M170 855 c0 -33 184 -319 233 -362 11 -10 -12 24 -51 75 -38 52 -95
140 -126 195 -31 56 -56 98 -56 92z" />
    <path d="M430 464 c0 -13 88 -99 95 -93 2 3 -18 27 -45 54 -28 27 -50 45 -50
39z" />
    <path d="M2451 354 c-89 -77 -196 -147 -309 -204 -121 -60 -225 -95 -367 -123
-60 -12 -102 -23 -92 -25 29 -6 174 26 284 63 126 42 242 100 354 176 75 52
213 168 199 168 -3 0 -34 -25 -69 -55z" />
    <path d="M575 325 c58 -55 204 -149 304 -196 47 -23 125 -54 173 -70 93 -30
251 -63 271 -56 7 2 -30 12 -82 21 -117 22 -248 64 -359 116 -76 36 -210 120
-312 196 l-35 26 40 -37z" />
  </g>
  <g transform="translate(0.000000,300.000000) scale(0.100000,-0.100000)" fill="#89c3f4" stroke="none">
    <path d="M1408 2943 c7 -3 16 -2 19 1 4 3 -2 6 -13 5 l-19 -1 13 -5z" />
    <path d="M1583 2943 c4 -3 10 -3 14 0 3 4 0 7 -7 7 -7 0 -10 -3 -7 -7z" />
    <path d="M1753 2923 c4 -3 10 -3 14 0 3 4 0 7 -7 7 -7 0 -10 -3 -7 -7z" />
    <path d="M1388 2683 c7 -3 16 -2 19 1 4 3 -2 6 -13 5 l-19 -1 13 -5z" />
    <path d="M1608 2683 c7 -3 16 -2 19 1 4 3 -2 6 -13 5 l-19 -1 13 -5z" />
    <path d="M2470 2576 c0 -2 8 -10 18 -17 l17 -14 -14 18 c-13 16 -21 21 -21 13z" />
    <path d="M903 2513 c4 -3 10 -3 14 0 3 4 0 7 -7 7 -7 0 -10 -3 -7 -7z" />
    <path d="M2565 2480 c10 -11 20 -20 23 -20 3 0 -3 9 -13 20 -10 11 -20 20 -23
20 -3 0 3 -9 13 -20z" />
    <path d="M394 2438 l-7 -11 11 7 c12 7 16 16 8 16 -3 0 -8 -5 -12 -12z" />
    <path d="M1483 2413 c9 -2 25 -2 35 0 9 3 1 5 -18 5 -19 0 -27 -2 -17 -5z" />
    <path d="M110 1920 c0 -7 3 -10 7 -7 3 4 3 10 0 14 -4 3 -7 0 -7 -7z" />
    <path d="M80 1810 c0 -7 3 -10 7 -7 3 4 3 10 0 14 -4 3 -7 0 -7 -7z" />
    <path d="M2610 1680 c0 -7 3 -10 7 -7 3 4 3 10 0 14 -4 3 -7 0 -7 -7z" />
    <path d="M391 1654 l1 -19 5 13 c3 7 2 16 -1 19 -3 4 -6 -2 -5 -13z" />
    <path d="M694 1178 l-7 -11 11 7 c7 4 12 9 12 12 0 8 -9 4 -16 -8z" />
    <path d="M973 1183 c4 -3 10 -3 14 0 3 4 0 7 -7 7 -7 0 -10 -3 -7 -7z" />
    <path d="M2094 1178 l-7 -11 11 7 c12 7 16 16 8 16 -3 0 -8 -5 -12 -12z" />
    <path d="M2195 1180 c3 -5 8 -10 11 -10 3 0 2 5 -1 10 -3 6 -8 10 -11 10 -3 0
-2 -4 1 -10z" />
    <path d="M1062 1000 c0 -14 2 -19 5 -12 2 6 2 18 0 25 -3 6 -5 1 -5 -13z" />
    <path d="M858 803 c23 -2 61 -2 85 0 23 2 4 4 -43 4 -47 0 -66 -2 -42 -4z" />
    <path d="M1944 508 l-7 -11 11 7 c12 7 16 16 8 16 -3 0 -8 -5 -12 -12z" />
  </g>
  <g transform="translate(0.000000,300.000000) scale(0.100000,-0.100000)" fill="#787979" stroke="none">
    <path d="M1677 2039 c7 -7 15 -10 18 -7 3 3 -2 9 -12 12 l-18 7 12 -12z" />
    <path d="M1705 2000 c3 -5 8 -10 11 -10 3 0 2 5 -1 10 -3 6 -8 10 -11 10 -3 0
-2 -4 1 -10z" />
    <path d="M1735 1980 c3 -5 8 -10 11 -10 3 0 2 5 -1 10 -3 6 -8 10 -11 10 -3 0
-2 -4 1 -10z" />
    <path d="M1784 1939 c-3 -5 -3 -9 0 -9 3 0 -3 -9 -14 -20 -12 -12 -18 -25 -15
-30 3 -4 0 -11 -5 -13 -6 -3 -5 -4 2 -2 7 1 12 8 11 14 -2 6 2 11 8 11 5 0 8
4 5 8 -3 5 5 15 18 22 l24 12 13 -7 12 -8 -6 10 c-9 15 -46 23 -53 12z" />
    <path d="M1890 1910 c0 -7 3 -10 7 -7 3 4 3 10 0 14 -4 3 -7 0 -7 -7z" />
    <path d="M1720 1830 c-6 -11 -7 -20 -3 -20 4 0 1 -5 -7 -11 l-15 -11 15 5 c8
2 14 10 13 16 -2 6 2 11 8 11 5 0 8 4 5 9 -4 5 0 12 6 14 l13 5 -12 1 c-7 1
-17 -8 -23 -19z" />
    <path d="M1687 1773 c-10 -10 -8 -23 4 -23 5 0 8 4 5 9 -4 5 0 12 6 14 l13 5
-11 1 c-6 1 -14 -2 -17 -6z" />
    <path d="M1650 1710 c-6 -11 -7 -20 -3 -20 4 0 1 -5 -7 -11 l-15 -11 15 5 c8
2 14 10 13 16 -2 6 2 11 8 11 5 0 8 4 5 9 -4 5 0 12 6 14 l13 5 -12 1 c-7 1
-17 -8 -23 -19z" />
    <path d="M1614 1649 c-3 -6 -1 -16 6 -22 l13 -12 -6 17 -6 17 12 5 12 4 -12 1
c-6 1 -15 -4 -19 -10z" />
    <path d="M2952 1590 c0 -14 2 -19 5 -12 2 6 2 18 0 25 -3 6 -5 1 -5 -13z" />
    <path d="M1317 1520 c-3 -11 -1 -20 4 -20 5 0 9 9 9 20 0 11 -2 20 -4 20 -2 0
-6 -9 -9 -20z" />
    <path d="M40 1461 c0 -16 5 -33 10 -36 l10 -6 0 30 c0 16 -4 33 -10 36 l-10 6
0 -30z" />
    <path d="M2951 1424 l1 -19 5 13 c3 7 2 16 -1 19 -3 4 -6 -2 -5 -13z" />
    <path d="M2940 1345 c0 -14 5 -25 10 -25 6 0 10 11 10 25 0 14 -4 25 -10 25
-5 0 -10 -11 -10 -25z" />
    <path d="M55 1317 c-4 -10 -5 -21 -1 -24 10 -10 18 4 13 24 l-4 18 -8 -18z" />
    <path d="M2930 1266 c0 -8 5 -18 10 -21 6 -3 10 1 10 9 0 8 -4 18 -10 21 -5 3
-10 -1 -10 -9z" />
    <path d="M66 1241 c-4 -7 -5 -15 -2 -18 9 -9 19 4 14 18 l-4 13 -8 -13z" />
    <path d="M2920 1206 c0 -8 5 -18 10 -21 6 -3 10 1 10 9 0 8 -4 18 -10 21 -5 3
-10 -1 -10 -9z" />
    <path d="M77 1183 c-4 -3 -7 -11 -7 -17 l0 -10 12 12 c6 6 9 14 7 17 -3 3 -9
2 -12 -2z" />
    <path d="M2916 1147 c3 -10 9 -15 12 -12 3 3 0 11 -7 18 l-12 12 7 -18z" />
    <path d="M2906 1107 c3 -10 9 -15 12 -12 3 3 0 11 -7 18 l-12 12 7 -18z" />
    <path d="M105 1059 c-4 -6 -5 -12 -2 -15 2 -3 7 2 10 11 7 17 1 20 -8 4z" />
    <path d="M2886 1037 c3 -10 9 -15 12 -12 3 3 0 11 -7 18 l-12 12 7 -18z" />
    <path d="M2870 970 c0 -7 3 -10 7 -7 3 4 3 10 0 14 -4 3 -7 0 -7 -7z" />
    <path d="M140 930 c0 -7 3 -10 7 -7 3 4 3 10 0 14 -4 3 -7 0 -7 -7z" />
    <path d="M225 750 c3 -5 8 -10 11 -10 3 0 2 5 -1 10 -3 6 -8 10 -11 10 -3 0
-2 -4 1 -10z" />
    <path d="M2764 738 l-7 -11 11 7 c7 4 12 9 12 12 0 8 -9 4 -16 -8z" />
    <path d="M285 650 c3 -5 8 -10 11 -10 3 0 2 5 -1 10 -3 6 -8 10 -11 10 -3 0
-2 -4 1 -10z" />
    <path d="M305 620 c3 -5 8 -10 11 -10 3 0 2 5 -1 10 -3 6 -8 10 -11 10 -3 0
-2 -4 1 -10z" />
    <path d="M2674 598 l-7 -11 11 7 c7 4 12 9 12 12 0 8 -9 4 -16 -8z" />
    <path d="M335 580 c3 -5 8 -10 11 -10 3 0 2 5 -1 10 -3 6 -8 10 -11 10 -3 0
-2 -4 1 -10z" />
    <path d="M2644 558 l-7 -11 11 7 c12 7 16 16 8 16 -3 0 -8 -5 -12 -12z" />
    <path d="M360 546 c0 -2 8 -10 18 -17 l17 -14 -14 18 c-13 16 -21 21 -21 13z" />
    <path d="M2604 508 l-19 -23 23 19 c12 11 22 21 22 23 0 8 -8 2 -26 -19z" />
    <path d="M475 420 c38 -38 72 -70 74 -70 3 0 -26 32 -64 70 -38 39 -72 70 -74
70 -3 0 26 -31 64 -70z" />
    <path d="M2529 423 l-24 -28 28 24 c15 14 27 26 27 28 0 8 -8 1 -31 -24z" />
    <path d="M2439 343 l-24 -28 28 24 c25 23 32 31 24 31 -2 0 -14 -12 -28 -27z" />
    <path d="M570 336 c0 -2 8 -10 18 -17 l17 -14 -14 18 c-13 16 -21 21 -21 13z" />
    <path d="M2379 293 l-14 -18 18 14 c16 13 21 21 13 21 -2 0 -10 -8 -17 -17z" />
    <path d="M620 296 c0 -2 8 -10 18 -17 l17 -14 -14 18 c-13 16 -21 21 -21 13z" />
    <path d="M2344 268 l-7 -11 11 7 c7 4 12 9 12 12 0 8 -9 4 -16 -8z" />
    <path d="M665 260 c3 -5 8 -10 11 -10 3 0 2 5 -1 10 -3 6 -8 10 -11 10 -3 0
-2 -4 1 -10z" />
    <path d="M2314 248 l-7 -11 11 7 c7 4 12 9 12 12 0 8 -9 4 -16 -8z" />
    <path d="M695 240 c3 -5 8 -10 11 -10 3 0 2 5 -1 10 -3 6 -8 10 -11 10 -3 0
-2 -4 1 -10z" />
    <path d="M2284 228 l-7 -11 11 7 c7 4 12 9 12 12 0 8 -9 4 -16 -8z" />
    <path d="M725 220 c3 -5 8 -10 11 -10 3 0 2 5 -1 10 -3 6 -8 10 -11 10 -3 0
-2 -4 1 -10z" />
    <path d="M2254 208 l-7 -11 11 7 c7 4 12 9 12 12 0 8 -9 4 -16 -8z" />
    <path d="M775 190 c3 -5 8 -10 11 -10 3 0 2 5 -1 10 -3 6 -8 10 -11 10 -3 0
-2 -4 1 -10z" />
    <path d="M2188 174 c-38 -20 -36 -28 2 -9 17 9 30 18 30 20 0 7 -1 6 -32 -11z" />
    <path d="M2100 130 c-8 -5 -10 -10 -5 -10 6 0 17 5 25 10 8 5 11 10 5 10 -5 0
-17 -5 -25 -10z" />
    <path d="M930 110 c8 -5 20 -10 25 -10 6 0 3 5 -5 10 -8 5 -19 10 -25 10 -5 0
-3 -5 5 -10z" />
    <path d="M980 90 c8 -5 20 -10 25 -10 6 0 3 5 -5 10 -8 5 -19 10 -25 10 -5 0
-3 -5 5 -10z" />
    <path d="M2023 93 c4 -3 10 -3 14 0 3 4 0 7 -7 7 -7 0 -10 -3 -7 -7z" />
    <path d="M1993 83 c4 -3 10 -3 14 0 3 4 0 7 -7 7 -7 0 -10 -3 -7 -7z" />
    <path d="M1023 73 c4 -3 10 -3 14 0 3 4 0 7 -7 7 -7 0 -10 -3 -7 -7z" />
    <path d="M1053 63 c4 -3 10 -3 14 0 3 4 0 7 -7 7 -7 0 -10 -3 -7 -7z" />
    <path d="M1933 63 c4 -3 10 -3 14 0 3 4 0 7 -7 7 -7 0 -10 -3 -7 -7z" />
    <path d="M1093 53 c4 -3 10 -3 14 0 3 4 0 7 -7 7 -7 0 -10 -3 -7 -7z" />
    <path d="M1903 53 c4 -3 10 -3 14 0 3 4 0 7 -7 7 -7 0 -10 -3 -7 -7z" />
    <path d="M1123 43 c4 -3 10 -3 14 0 3 4 0 7 -7 7 -7 0 -10 -3 -7 -7z" />
    <path d="M1868 43 c7 -3 16 -2 19 1 4 3 -2 6 -13 5 l-19 -1 13 -5z" />
    <path d="M1163 33 c4 -3 10 -3 14 0 3 4 0 7 -7 7 -7 0 -10 -3 -7 -7z" />
    <path d="M1828 33 c7 -3 16 -2 19 1 4 3 -2 6 -13 5 l-19 -1 13 -5z" />
    <path d="M1208 23 c6 -2 18 -2 25 0 6 3 1 5 -13 5 -14 0 -19 -2 -12 -5z" />
    <path d="M1778 23 c7 -3 16 -2 19 1 4 3 -2 6 -13 5 l-19 -1 13 -5z" />
    <path d="M1268 13 c7 -3 16 -2 19 1 4 3 -2 6 -13 5 l-19 -1 13 -5z" />
    <path d="M1718 13 c6 -2 18 -2 25 0 6 3 1 5 -13 5 -14 0 -19 -2 -12 -5z" />
    <path d="M1333 3 c9 -2 25 -2 35 0 9 3 1 5 -18 5 -19 0 -27 -2 -17 -5z" />
    <path d="M1633 3 c9 -2 25 -2 35 0 9 3 1 5 -18 5 -19 0 -27 -2 -17 -5z" />
  </g>
  <g transform="translate(0.000000,300.000000) scale(0.100000,-0.100000)" fill="#137bc3" stroke="none">
    <path d="M70 1740 c0 -7 3 -10 7 -7 3 4 3 10 0 14 -4 3 -7 0 -7 -7z" />
    <path d="M2931 1714 l1 -19 5 13 c3 7 2 16 -1 19 -3 4 -6 -2 -5 -13z" />
    <path d="M61 1664 l1 -19 5 13 c3 7 2 16 -1 19 -3 4 -6 -2 -5 -13z" />
    <path d="M52 1555 l0 -30 5 18 c2 9 2 23 0 30 -3 6 -5 -1 -5 -18z" />
    <path d="M1671 1494 c1 -22 -3 -56 -10 -76 l-12 -37 -39 -35 -39 -35 -36 -7
c-49 -9 -92 1 -133 32 l-34 27 -24 52 -23 53 6 21 5 21 -11 0 -11 0 0 -37 c1
-73 58 -158 123 -182 60 -23 153 -6 200 37 11 9 28 34 38 54 l19 37 0 50 0 50
-11 7 -11 6 3 -38z" />
    <path d="M53 1440 c0 -25 2 -35 4 -22 2 12 2 32 0 45 -2 12 -4 2 -4 -23z" />
    <path d="M2942 1350 c0 -14 2 -19 5 -12 2 6 2 18 0 25 -3 6 -5 1 -5 -13z" />
    <path d="M62 1320 c0 -19 2 -27 5 -17 2 9 2 25 0 35 -3 9 -5 1 -5 -18z" />
    <path d="M2932 1275 l0 -30 5 18 c2 9 2 23 0 30 -3 6 -5 -1 -5 -18z" />
    <path d="M70 1250 c0 -7 3 -10 7 -7 3 4 3 10 0 14 -4 3 -7 0 -7 -7z" />
    <path d="M2921 1214 l1 -19 5 13 c3 7 2 16 -1 19 -3 4 -6 -2 -5 -13z" />
    <path d="M82 1195 c0 -11 3 -29 8 -40 l9 -20 -1 15 c0 8 -4 26 -8 40 l-8 25 0
-20z" />
    <path d="M2910 1170 c0 -7 3 -10 7 -7 3 4 3 10 0 14 -4 3 -7 0 -7 -7z" />
    <path d="M2900 1130 c0 -7 3 -10 7 -7 3 4 3 10 0 14 -4 3 -7 0 -7 -7z" />
    <path d="M100 1110 c0 -7 3 -10 7 -7 3 4 3 10 0 14 -4 3 -7 0 -7 -7z" />
    <path d="M2890 1090 c0 -7 3 -10 7 -7 3 4 3 10 0 14 -4 3 -7 0 -7 -7z" />
    <path d="M115 1067 c7 -36 46 -139 50 -135 2 2 -10 39 -26 83 -16 44 -27 67
-24 52z" />
    <path d="M2881 1063 c-1 -6 -4 -20 -7 -30 l-6 -18 12 18 c6 10 9 23 6 30 l-4
12 -1 -12z" />
    <path d="M2860 1000 c0 -7 3 -10 7 -7 3 4 3 10 0 14 -4 3 -7 0 -7 -7z" />
    <path d="M2842 951 c-6 -17 -9 -31 -6 -31 7 0 25 52 20 57 -2 2 -8 -10 -14
-26z" />
    <path d="M200 850 c17 -33 33 -60 35 -60 3 0 -8 27 -25 60 -17 33 -33 60 -35
60 -3 0 8 -27 25 -60z" />
    <path d="M2792 845 c-17 -36 -30 -65 -27 -65 7 0 67 121 63 126 -2 2 -18 -26
-36 -61z" />
    <path d="M250 760 c6 -11 13 -20 16 -20 2 0 0 9 -6 20 -6 11 -13 20 -16 20 -2
0 0 -9 6 -20z" />
    <path d="M2734 738 l-7 -11 11 7 c12 7 16 16 8 16 -3 0 -8 -5 -12 -12z" />
    <path d="M287 699 c10 -17 24 -36 32 -42 8 -7 2 7 -14 31 -32 49 -45 57 -18
11z" />
    <path d="M2705 694 c-9 -15 -12 -23 -6 -20 11 7 35 46 28 46 -3 0 -12 -12 -22
-26z" />
    <path d="M2654 623 c-15 -20 -23 -33 -16 -29 13 8 56 66 49 66 -3 0 -17 -17
-33 -37z" />
    <path d="M346 617 c3 -10 9 -15 12 -12 3 3 0 11 -7 18 l-12 12 7 -18z" />
    <path d="M385 570 c10 -11 20 -20 23 -20 3 0 -3 9 -13 20 -10 11 -20 20 -23
20 -3 0 3 -9 13 -20z" />
    <path d="M2584 538 l-19 -23 23 19 c12 11 22 21 22 23 0 8 -8 2 -26 -19z" />
    <path d="M2454 408 l-19 -23 23 19 c21 18 27 26 19 26 -2 0 -12 -10 -23 -22z" />
    <path d="M551 397 c2 -1 13 -9 24 -17 l20 -15 -14 18 c-7 9 -18 17 -24 17 -6
0 -8 -1 -6 -3z" />
    <path d="M2394 358 l-7 -11 11 7 c12 7 16 16 8 16 -3 0 -8 -5 -12 -12z" />
    <path d="M601 357 c2 -1 13 -9 24 -17 l20 -15 -14 18 c-7 9 -18 17 -24 17 -6
0 -8 -1 -6 -3z" />
    <path d="M2355 330 l-6 -10 15 6 c18 7 21 14 7 14 -6 0 -13 -4 -16 -10z" />
    <path d="M665 310 c3 -5 8 -10 11 -10 3 0 2 5 -1 10 -3 6 -8 10 -11 10 -3 0
-2 -4 1 -10z" />
    <path d="M2300 289 l-25 -20 22 10 c12 6 25 16 28 21 9 15 3 12 -25 -11z" />
    <path d="M695 290 c3 -5 8 -10 11 -10 3 0 2 5 -1 10 -3 6 -8 10 -11 10 -3 0
-2 -4 1 -10z" />
    <path d="M735 265 c22 -18 86 -53 70 -38 -5 6 -28 20 -50 32 l-40 23 20 -17z" />
    <path d="M2244 254 l-19 -15 23 11 c12 6 22 13 22 15 0 8 -5 6 -26 -11z" />
    <path d="M2150 205 c-36 -19 -61 -34 -57 -35 10 0 127 59 127 65 0 7 2 8 -70
-30z" />
    <path d="M920 166 c0 -2 7 -7 16 -10 l15 -6 -6 10 c-6 10 -25 14 -25 6z" />
    <path d="M2035 150 l-6 -10 15 6 c18 7 21 14 7 14 -6 0 -13 -4 -16 -10z" />
    <path d="M973 143 c4 -3 10 -3 14 0 3 4 0 7 -7 7 -7 0 -10 -3 -7 -7z" />
    <path d="M1000 137 c0 -3 15 -10 32 -16 18 -6 28 -7 23 -2 -12 10 -55 25 -55
18z" />
    <path d="M1993 133 c4 -3 10 -3 14 0 3 4 0 7 -7 7 -7 0 -10 -3 -7 -7z" />
    <path d="M1945 120 l-20 -9 15 0 c8 0 22 4 30 9 18 12 2 12 -25 0z" />
    <path d="M1093 103 c4 -3 10 -3 14 0 3 4 0 7 -7 7 -7 0 -10 -3 -7 -7z" />
    <path d="M1903 103 c4 -3 10 -3 14 0 3 4 0 7 -7 7 -7 0 -10 -3 -7 -7z" />
    <path d="M1120 96 c0 -2 9 -6 20 -9 l20 -5 -6 9 c-5 9 -34 13 -34 5z" />
    <path d="M1863 93 c4 -3 10 -3 14 0 3 4 0 7 -7 7 -7 0 -10 -3 -7 -7z" />
    <path d="M1173 83 c4 -3 10 -3 14 0 3 4 0 7 -7 7 -7 0 -10 -3 -7 -7z" />
    <path d="M1823 83 c4 -3 10 -3 14 0 3 4 0 7 -7 7 -7 0 -10 -3 -7 -7z" />
    <path d="M1223 73 c4 -3 10 -3 14 0 3 4 0 7 -7 7 -7 0 -10 -3 -7 -7z" />
    <path d="M1773 73 c4 -3 10 -3 14 0 3 4 0 7 -7 7 -7 0 -10 -3 -7 -7z" />
    <path d="M1278 63 c6 -2 18 -2 25 0 6 3 1 5 -13 5 -14 0 -19 -2 -12 -5z" />
    <path d="M1708 63 c6 -2 18 -2 25 0 6 3 1 5 -13 5 -14 0 -19 -2 -12 -5z" />
    <path d="M1363 53 c9 -2 25 -2 35 0 9 3 1 5 -18 5 -19 0 -27 -2 -17 -5z" />
    <path d="M1613 53 c9 -2 25 -2 35 0 9 3 1 5 -18 5 -19 0 -27 -2 -17 -5z" />
  </g>
  <g transform="translate(0.000000,300.000000) scale(0.100000,-0.100000)" fill="#105788" stroke="none">
    <path d="M1320 1448 c1 -31 41 -98 74 -123 l35 -27 40 -5 c22 -3 56 -2 76 1
l36 7 39 35 c35 32 69 98 57 110 -2 3 -14 -14 -25 -37 l-21 -41 -37 -25 -37
-26 -42 -5 -42 -4 -34 17 c-30 15 -96 75 -83 75 2 0 -2 14 -11 30 -16 32 -25
38 -25 18z" />
    <path d="M51 1394 l1 -19 5 13 c3 7 2 16 -1 19 -3 4 -6 -2 -5 -13z" />
    <path d="M2940 1330 c0 -7 3 -10 7 -7 3 4 3 10 0 14 -4 3 -7 0 -7 -7z" />
    <path d="M71 1234 l1 -19 5 13 c3 7 2 16 -1 19 -3 4 -6 -2 -5 -13z" />
    <path d="M2920 1200 c0 -7 3 -10 7 -7 3 4 3 10 0 14 -4 3 -7 0 -7 -7z" />
    <path d="M80 1180 c0 -7 3 -10 7 -7 3 4 3 10 0 14 -4 3 -7 0 -7 -7z" />
    <path d="M2910 1160 c0 -7 3 -10 7 -7 3 4 3 10 0 14 -4 3 -7 0 -7 -7z" />
    <path d="M2900 1120 c0 -7 3 -10 7 -7 3 4 3 10 0 14 -4 3 -7 0 -7 -7z" />
    <path d="M110 1070 c0 -7 3 -10 7 -7 3 4 3 10 0 14 -4 3 -7 0 -7 -7z" />
    <path d="M2880 1050 c0 -7 3 -10 7 -7 3 4 3 10 0 14 -4 3 -7 0 -7 -7z" />
    <path d="M120 1040 c0 -7 3 -10 7 -7 3 4 3 10 0 14 -4 3 -7 0 -7 -7z" />
    <path d="M130 1010 c0 -7 3 -10 7 -7 3 4 3 10 0 14 -4 3 -7 0 -7 -7z" />
    <path d="M140 980 c0 -7 3 -10 7 -7 3 4 3 10 0 14 -4 3 -7 0 -7 -7z" />
    <path d="M2840 940 c0 -7 3 -10 7 -7 3 4 3 10 0 14 -4 3 -7 0 -7 -7z" />
    <path d="M170 910 c0 -7 3 -10 7 -7 3 4 3 10 0 14 -4 3 -7 0 -7 -7z" />
    <path d="M285 700 c3 -5 8 -10 11 -10 3 0 2 5 -1 10 -3 6 -8 10 -11 10 -3 0
-2 -4 1 -10z" />
    <path d="M2704 688 l-7 -11 11 7 c12 7 16 16 8 16 -3 0 -8 -5 -12 -12z" />
    <path d="M305 670 c3 -5 8 -10 11 -10 3 0 2 5 -1 10 -3 6 -8 10 -11 10 -3 0
-2 -4 1 -10z" />
    <path d="M335 630 c3 -5 8 -10 11 -10 3 0 2 5 -1 10 -3 6 -8 10 -11 10 -3 0
-2 -4 1 -10z" />
    <path d="M2654 618 l-7 -11 11 7 c12 7 16 16 8 16 -3 0 -8 -5 -12 -12z" />
    <path d="M365 590 c3 -5 8 -10 11 -10 3 0 2 5 -1 10 -3 6 -8 10 -11 10 -3 0
-2 -4 1 -10z" />
    <path d="M2609 563 l-14 -18 18 14 c16 13 21 21 13 21 -2 0 -10 -8 -17 -17z" />
    <path d="M470 475 c35 -36 67 -65 69 -65 3 0 -24 29 -59 65 -35 36 -67 65 -69
65 -3 0 24 -29 59 -65z" />
    <path d="M2429 383 l-14 -18 18 14 c16 13 21 21 13 21 -2 0 -10 -8 -17 -17z" />
    <path d="M580 376 c0 -2 8 -10 18 -17 l17 -14 -14 18 c-13 16 -21 21 -21 13z" />
    <path d="M2379 343 l-14 -18 18 14 c9 7 17 15 17 17 0 8 -8 3 -21 -13z" />
    <path d="M635 330 c3 -5 8 -10 11 -10 3 0 2 5 -1 10 -3 6 -8 10 -11 10 -3 0
-2 -4 1 -10z" />
    <path d="M2344 318 l-7 -11 11 7 c12 7 16 16 8 16 -3 0 -8 -5 -12 -12z" />
    <path d="M2304 288 l-7 -11 11 7 c7 4 12 9 12 12 0 8 -9 4 -16 -8z" />
    <path d="M755 250 c3 -5 8 -10 11 -10 3 0 2 5 -1 10 -3 6 -8 10 -11 10 -3 0
-2 -4 1 -10z" />
    <path d="M867 189 c7 -7 15 -10 18 -7 3 3 -2 9 -12 12 l-18 7 12 -12z" />
    <path d="M943 153 c4 -3 10 -3 14 0 3 4 0 7 -7 7 -7 0 -10 -3 -7 -7z" />
    <path d="M2023 143 c4 -3 10 -3 14 0 3 4 0 7 -7 7 -7 0 -10 -3 -7 -7z" />
    <path d="M1023 123 c4 -3 10 -3 14 0 3 4 0 7 -7 7 -7 0 -10 -3 -7 -7z" />
    <path d="M1053 113 c4 -3 10 -3 14 0 3 4 0 7 -7 7 -7 0 -10 -3 -7 -7z" />
    <path d="M1943 113 c4 -3 10 -3 14 0 3 4 0 7 -7 7 -7 0 -10 -3 -7 -7z" />
    <path d="M1083 103 c4 -3 10 -3 14 0 3 4 0 7 -7 7 -7 0 -10 -3 -7 -7z" />
    <path d="M1163 83 c4 -3 10 -3 14 0 3 4 0 7 -7 7 -7 0 -10 -3 -7 -7z" />
    <path d="M1833 83 c4 -3 10 -3 14 0 3 4 0 7 -7 7 -7 0 -10 -3 -7 -7z" />
    <path d="M1208 73 c7 -3 16 -2 19 1 4 3 -2 6 -13 5 l-19 -1 13 -5z" />
    <path d="M1788 73 c7 -3 16 -2 19 1 4 3 -2 6 -13 5 l-19 -1 13 -5z" />
    <path d="M1263 63 c4 -3 10 -3 14 0 3 4 0 7 -7 7 -7 0 -10 -3 -7 -7z" />
    <path d="M1733 63 c4 -3 10 -3 14 0 3 4 0 7 -7 7 -7 0 -10 -3 -7 -7z" />
    <path d="M1338 53 c7 -3 16 -2 19 1 4 3 -2 6 -13 5 l-19 -1 13 -5z" />
    <path d="M1658 53 c7 -3 16 -2 19 1 4 3 -2 6 -13 5 l-19 -1 13 -5z" />
    <path d="M1493 43 c9 -2 23 -2 30 0 6 3 -1 5 -18 5 l-30 0 18 -5z" />
  </g>
  <g transform="translate(0.000000,300.000000) scale(0.100000,-0.100000)" fill="#07324f" stroke="none">
    <path d="M1330 1435 c0 -15 18 -40 24 -34 3 3 -1 14 -9 25 -8 10 -14 15 -15 9z" />
    <path d="M1624 1386 c-22 -23 -48 -46 -56 -53 l-16 -12 -22 6 -23 6 7 -11 7
-12 -21 0 -21 0 7 11 7 12 -27 -7 -26 -6 0 10 c0 6 -4 8 -10 5 -5 -3 -10 -1
-10 6 0 7 -3 9 -6 6 -4 -3 -15 5 -26 18 -26 33 -43 32 -22 -1 10 -14 35 -34
57 -46 l40 -20 53 4 53 5 35 27 c31 23 74 83 64 90 -2 2 -21 -16 -44 -38z m16
-10 c0 -3 -5 -8 -12 -12 l-11 -7 7 11 c7 12 16 16 16 8z" />
    <path d="M355 600 c3 -5 8 -10 11 -10 3 0 2 5 -1 10 -3 6 -8 10 -11 10 -3 0
-2 -4 1 -10z" />
    <path d="M2524 468 l-29 -33 33 29 c30 28 37 36 29 36 -2 0 -16 -15 -33 -32z" />
    <path d="M530 416 c0 -2 8 -10 18 -17 l17 -14 -14 18 c-13 16 -21 21 -21 13z" />
    <path d="M1153 83 c4 -3 10 -3 14 0 3 4 0 7 -7 7 -7 0 -10 -3 -7 -7z" />
    <path d="M1323 53 c4 -3 10 -3 14 0 3 4 0 7 -7 7 -7 0 -10 -3 -7 -7z" />
    <path d="M1673 53 c4 -3 10 -3 14 0 3 4 0 7 -7 7 -7 0 -10 -3 -7 -7z" />
    <path d="M1438 43 c12 -2 30 -2 40 0 9 3 -1 5 -23 4 l-40 0 23 -4z" />
    <path d="M1538 43 c12 -2 30 -2 40 0 9 3 -1 5 -23 4 l-40 0 23 -4z" />
  </g>
  <g transform="translate(0.000000,300.000000) scale(0.100000,-0.100000)" fill="#d22124" stroke="none">
    <path d="M1860 2180 l-15 -10 12 0 c6 0 15 5 18 10 8 12 4 12 -15 0z" />
    <path d="M1814 2148 l-7 -11 11 7 c12 7 16 16 8 16 -3 0 -8 -5 -12 -12z" />
    <path d="M1780 2130 l-15 -10 12 0 c6 0 15 5 18 10 8 12 4 12 -15 0z" />
    <path d="M1730 2100 l-15 -10 12 0 c6 0 15 5 18 10 8 12 4 12 -15 0z" />
    <path d="M1903 2060 c0 -30 2 -43 4 -27 2 15 2 39 0 55 -2 15 -4 2 -4 -28z" />
    <path d="M1695 2030 c3 -5 8 -10 11 -10 3 0 2 5 -1 10 -3 6 -8 10 -11 10 -3 0
-2 -4 1 -10z" />
    <path d="M1744 1990 l0 -20 10 10 10 10 -10 10 -10 10 0 -20z" />
    <path d="M1797 1963 c-4 -3 -7 -11 -7 -17 l0 -11 9 14 8 13 24 -12 24 -11 -19
15 c-22 18 -29 19 -39 9z" />
    <path d="M1706 1913 l-7 -18 12 12 c7 7 10 15 7 18 -3 3 -9 -2 -12 -12z" />
    <path d="M1870 1926 c0 -2 7 -7 16 -10 l15 -6 -6 10 c-6 10 -25 14 -25 6z" />
    <path d="M1760 1900 c-6 -11 -8 -20 -6 -20 3 0 10 9 16 20 6 11 8 20 6 20 -3
0 -10 -9 -16 -20z" />
    <path d="M1676 1863 l-7 -18 12 12 c7 7 10 15 7 18 -3 3 -9 -2 -12 -12z" />
    <path d="M1720 1830 c-6 -11 -8 -20 -6 -20 3 0 10 9 16 20 6 11 8 20 6 20 -3
0 -10 -9 -16 -20z" />
    <path d="M1636 1793 l-7 -18 12 12 c7 7 10 15 7 18 -3 3 -9 -2 -12 -12z" />
    <path d="M1680 1760 c-6 -11 -8 -20 -6 -20 3 0 10 9 16 20 6 11 8 20 6 20 -3
0 -10 -9 -16 -20z" />
    <path d="M1650 1710 c-6 -11 -8 -20 -6 -20 3 0 10 9 16 20 6 11 8 20 6 20 -3
0 -10 -9 -16 -20z" />
    <path d="M1566 1673 l-7 -18 12 12 c7 7 10 15 7 18 -3 3 -9 -2 -12 -12z" />
    <path d="M1615 1649 c-4 -6 -5 -12 -2 -15 2 -3 7 2 10 11 7 17 1 20 -8 4z" />
    <path d="M1645 1590 c3 -5 8 -10 11 -10 3 0 2 5 -1 10 -3 6 -8 10 -11 10 -3 0
-2 -4 1 -10z" />
    <path d="M1336 1573 l-7 -18 12 12 c7 7 10 15 7 18 -3 3 -9 -2 -12 -12z" />
    <path d="M1673 1500 c0 -25 2 -35 4 -22 2 12 2 32 0 45 -2 12 -4 2 -4 -23z" />
    <path d="M1330 1444 c0 -6 7 -19 16 -30 l15 -19 -12 25 c-14 31 -19 36 -19 24z" />
    <path d="M1641 1399 c-12 -16 -37 -39 -54 -50 -18 -10 -27 -19 -20 -19 15 0
80 56 94 81 15 28 6 23 -20 -12z" />
    <path d="M1483 1323 c9 -2 25 -2 35 0 9 3 1 5 -18 5 -19 0 -27 -2 -17 -5z" />
  </g>
  <g transform="translate(0.000000,300.000000) scale(0.100000,-0.100000)" fill="#528cb4" stroke="none">
    <path d="M2910 1830 c0 -7 3 -10 7 -7 3 4 3 10 0 14 -4 3 -7 0 -7 -7z" />
    <path d="M2921 1784 l1 -19 5 13 c3 7 2 16 -1 19 -3 4 -6 -2 -5 -13z" />
    <path d="M71 1754 l1 -19 5 13 c3 7 2 16 -1 19 -3 4 -6 -2 -5 -13z" />
    <path d="M2930 1730 c0 -7 3 -10 7 -7 3 4 3 10 0 14 -4 3 -7 0 -7 -7z" />
    <path d="M62 1690 c0 -14 2 -19 5 -12 2 6 2 18 0 25 -3 6 -5 1 -5 -13z" />
    <path d="M2942 1660 c0 -14 2 -19 5 -12 2 6 2 18 0 25 -3 6 -5 1 -5 -13z" />
    <path d="M52 1600 c0 -19 2 -27 5 -17 2 9 2 25 0 35 -3 9 -5 1 -5 -18z" />
    <path d="M2953 1505 c0 -44 2 -61 4 -37 2 23 2 59 0 80 -2 20 -4 1 -4 -43z" />
  </g>
  <g transform="translate(0.000000,300.000000) scale(0.100000,-0.100000)" fill="#e66161" stroke="none">
    <path d="M1894 2198 l-7 -11 11 7 c12 7 16 16 8 16 -3 0 -8 -5 -12 -12z" />
    <path d="M1844 2168 l-7 -11 11 7 c7 4 12 9 12 12 0 8 -9 4 -16 -8z" />
    <path d="M1764 2118 l-7 -11 11 7 c7 4 12 9 12 12 0 8 -9 4 -16 -8z" />
    <path d="M1714 2088 l-7 -11 11 7 c12 7 16 16 8 16 -3 0 -8 -5 -12 -12z" />
    <path d="M1675 2067 l-18 -14 14 -8 14 -8 -7 8 c-4 4 0 14 10 21 23 18 11 18
-13 1z" />
    <path d="M1900 1968 l-5 -57 8 8 c5 5 7 30 5 57 l-3 49 -5 -57z" />
    <path d="M1720 1940 c-6 -11 -8 -20 -6 -20 3 0 10 9 16 20 6 11 8 20 6 20 -3
0 -10 -9 -16 -20z" />
    <path d="M1684 1878 l-7 -11 11 7 c12 7 16 16 8 16 -3 0 -8 -5 -12 -12z" />
    <path d="M1644 1808 l-7 -11 11 7 c7 4 12 9 12 12 0 8 -9 4 -16 -8z" />
    <path d="M1610 1750 c-6 -11 -8 -20 -6 -20 3 0 10 9 16 20 6 11 8 20 6 20 -3
0 -10 -9 -16 -20z" />
    <path d="M1574 1688 l-7 -11 11 7 c12 7 16 16 8 16 -3 0 -8 -5 -12 -12z" />
    <path d="M1414 1654 l-19 -15 25 12 c31 14 36 19 24 19 -6 0 -19 -7 -30 -16z" />
    <path d="M1553 1663 c4 -3 10 -3 14 0 3 4 0 7 -7 7 -7 0 -10 -3 -7 -7z" />
    <path d="M1610 1636 c0 -2 8 -10 18 -17 l17 -14 -14 18 c-13 16 -21 21 -21 13z" />
    <path d="M1344 1588 l-7 -11 11 7 c12 7 16 16 8 16 -3 0 -8 -5 -12 -12z" />
    <path d="M1330 1560 c0 -7 3 -10 7 -7 3 4 3 10 0 14 -4 3 -7 0 -7 -7z" />
    <path d="M1670 1540 c0 -7 3 -10 7 -7 3 4 3 10 0 14 -4 3 -7 0 -7 -7z" />
  </g>
  <g transform="translate(0.000000,300.000000) scale(0.100000,-0.100000)" fill="#f99c9c" stroke="none">
    <path d="M1664 2058 l-7 -11 11 7 c12 7 16 16 8 16 -3 0 -8 -5 -12 -12z" />
    <path d="M1483 1673 c9 -2 25 -2 35 0 9 3 1 5 -18 5 -19 0 -27 -2 -17 -5z" />
    <path d="M1369 1623 l-14 -18 18 14 c16 13 21 21 13 21 -2 0 -10 -8 -17 -17z" />
  </g>
  <g transform="translate(0.000000,300.000000) scale(0.100000,-0.100000)" fill="#8d2a31" stroke="none">
    <path d="M1784 1938 l-7 -11 11 7 c7 4 12 9 12 12 0 8 -9 4 -16 -8z" />
    <path d="M1321 1494 l1 -19 5 13 c3 7 2 16 -1 19 -3 4 -6 -2 -5 -13z" />
    <path d="M1644 1398 l-7 -11 11 7 c7 4 12 9 12 12 0 8 -9 4 -16 -8z" />
  </g>
  <g transform="translate(0.000000,300.000000) scale(0.100000,-0.100000)" fill="#7f131b" stroke="none">
    <path d="M1865 1930 c3 -5 8 -10 11 -10 3 0 2 5 -1 10 -3 6 -8 10 -11 10 -3 0
-2 -4 1 -10z" />
    <path d="M1375 1370 c10 -11 20 -20 23 -20 3 0 -3 9 -13 20 -10 11 -20 20 -23
20 -3 0 3 -9 13 -20z" />
    <path d="M1594 1348 l-7 -11 11 7 c12 7 16 16 8 16 -3 0 -8 -5 -12 -12z" />
    <path d="M1463 1323 c4 -3 10 -3 14 0 3 4 0 7 -7 7 -7 0 -10 -3 -7 -7z" />
    <path d="M1523 1323 c4 -3 10 -3 14 0 3 4 0 7 -7 7 -7 0 -10 -3 -7 -7z" />
  </g>
</svg>